<svg width="534" height="345" fill="none" xmlns="http://www.w3.org/2000/svg"><g clip-path="url(#clip0_1746_13982)"><path opacity=".5" d="M403.154 28.805L512.743 44.91c9.196 1.534 16.859 7.67 19.925 16.872 3.065 8.436.766 18.406-6.131 24.541l-79.701 78.993 19.159 111.97c1.533 9.203-2.299 18.406-9.963 23.775-7.663 6.135-17.626 6.135-26.056 2.3l-98.093-52.917-98.859 52.917c-7.664 3.835-18.393 3.835-25.29-2.3-7.664-5.369-11.495-14.572-9.963-23.775l18.393-111.97-79.701-78.993c-6.897-6.135-9.196-16.105-6.131-24.54 3.066-9.204 10.729-15.34 19.925-16.873l110.355-16.105 49.047-102C313.491-81.632 321.921-87 331.883-87c9.196 0 17.626 5.368 21.458 13.805l49.813 102z" fill="#E599F7"/><path d="M378.375 153.75L385.5 151l2.625-7c.125-.625.75-1 1.375-1 .5 0 1.125.375 1.25 1l2.75 7 7 2.75c.625.125 1 .75 1 1.25 0 .625-.375 1.25-1 1.375l-7 2.625-2.75 7.125c-.125.5-.75.875-1.25.875-.625 0-1.25-.375-1.375-.875L385.5 159l-7.125-2.625c-.625-.125-.875-.75-.875-1.375 0-.5.25-1.125.875-1.25zm-8.75 12.75l14.25 6.5c.75.375 1.25 1.125 1.25 1.875s-.5 1.5-1.25 1.875l-14.25 6.5-6.5 14.25c-.375.75-1.125 1.25-1.875 1.25s-1.5-.5-1.75-1.25l-6.625-14.25-14.25-6.5c-.75-.375-1.125-1.125-1.125-1.875s.375-1.5 1.125-1.875l14.25-6.5 6.625-14.25c.25-.75 1-1.25 1.75-1.25s1.5.5 1.875 1.25l6.5 14.25zm18.5 17.5c.125-.625.75-1 1.375-1 .5 0 1.125.375 1.25 1l2.75 7 7 2.75c.625.125 1 .75 1 1.25 0 .625-.375 1.25-1 1.375l-7 2.625-2.75 7.125c-.125.5-.75.875-1.25.875-.625 0-1.25-.375-1.375-.875L385.5 199l-7.125-2.625c-.625-.125-.875-.75-.875-1.375 0-.5.25-1.125.875-1.25L385.5 191l2.625-7z" fill="#fff"/><path d="M40.875 250.75L48 248l2.625-7c.125-.625.75-1 1.375-1 .5 0 1.125.375 1.25 1l2.75 7 7 2.75c.625.125 1 .75 1 1.25 0 .625-.375 1.25-1 1.375L56 256l-2.75 7.125c-.125.5-.75.875-1.25.875-.625 0-1.25-.375-1.375-.875L48 256l-7.125-2.625c-.625-.125-.875-.75-.875-1.375 0-.5.25-1.125.875-1.25zm-8.75 12.75l14.25 6.5c.75.375 1.25 1.125 1.25 1.875s-.5 1.5-1.25 1.875l-14.25 6.5-6.5 14.25c-.375.75-1.125 1.25-1.875 1.25s-1.5-.5-1.75-1.25l-6.625-14.25-14.25-6.5C.375 273.375 0 272.625 0 271.875s.375-1.5 1.125-1.875l14.25-6.5L22 249.25c.25-.75 1-1.25 1.75-1.25s1.5.5 1.875 1.25l6.5 14.25zm18.5 17.5c.125-.625.75-1 1.375-1 .5 0 1.125.375 1.25 1l2.75 7 7 2.75c.625.125 1 .75 1 1.25 0 .625-.375 1.25-1 1.375L56 296l-2.75 7.125c-.125.5-.75.875-1.25.875-.625 0-1.25-.375-1.375-.875L48 296l-7.125-2.625c-.625-.125-.875-.75-.875-1.375 0-.5.25-1.125.875-1.25L48 288l2.625-7z" fill="#EBC5F5"/><path d="M168 128.992c13.802-3.552 24-16.081 24-30.992 0-17.673-14.327-32-32-32-17.673 0-32 14.327-32 32 0 14.911 10.198 27.44 24 30.992V199a8 8 0 0 0 16 0v-70.008z" fill="#63E6BE"/><circle cx="160" cy="98" r="20" fill="#fff"/><circle cx="160" cy="98" r="8" fill="#193154"/><rect x="60.5" y="157" width="204" height="16" rx="8" fill="#193154"/><path d="M88.712 173H236.5v160c0 6.627-5.373 12-12 12H100.515c-6.633 0-12.008-5.382-12-12.015L88.712 173z" fill="#193154"/><path fill="#515F7C" d="M88.5 173h148v44h-148z"/><path fill="#8991A6" d="M107.5 173h19v44h-19z"/><path opacity=".5" d="M213.034 173H237v160c0 6.627-5.373 12-12 12h-12l.034-172z" fill="#001D40"/><rect x="188" y="145" width="25" height="24" rx="12" fill="#63E6BE"/><rect x="107" y="145" width="25" height="24" rx="12" fill="#63E6BE"/><rect x="254" y="144.25" width="19" height="235" rx="8" transform="rotate(-30 254 144.25)" fill="#193154"/><path opacity=".5" d="M369.946 343.467a8.002 8.002 0 0 0 8.482.299l2.598-1.5a8 8 0 0 0 2.928-10.928l-109.5-189.66a8 8 0 0 0-10.928-2.928l-.518.299a7.958 7.958 0 0 1 2.446 2.629l109.5 189.66a8 8 0 0 1-2.928 10.928l-2.08 1.201z" fill="#001D40"/><path d="M258 151.178a8 8 0 0 1 2.928-10.928l2.598-1.5a8 8 0 0 1 10.928 2.928l30.5 52.828-16.454 9.5-30.5-52.828z" fill="#fff"/><path opacity=".3" d="M298.204 198.403l6.75-3.897-30.5-52.828a8 8 0 0 0-10.928-2.928l-.518.299a7.958 7.958 0 0 1 2.446 2.629l32.75 56.725z" fill="#E599F7"/></g><defs><clipPath id="clip0_1746_13982"><path fill="#fff" d="M0 0h534v345H0z"/></clipPath></defs></svg>