<svg xmlns="http://www.w3.org/2000/svg" width="172" height="116" viewBox="0 0 172 116"><g><g><path fill="#fff" d="M87.838.02a.598.598 0 0 1 .14-.02h.071c.083.001.17.011.255.034.127.032.123.23.122.252V.3l-.189.313c.08.04.195.124.217.29a.42.42 0 0 1-.16.375l.039.7c.136.051.21.173.19.312a8.33 8.33 0 0 0-.046.348c-.007.091-.1.149-.157.175l-.014.566c.002.182-.002.354-.014.523v.01l.12.112c.036.035.058.08.058.128a.946.946 0 0 1-.213.594l-.008 1.505c.126.174.175.332.147.473a.372.372 0 0 1-.135.217l.023 1.296a.95.95 0 0 1 0 .224l.003.095c.133.172.138.33.115.474-.022.139-.063.23-.12.273-.005.089-.01.179-.021.267l.006.31c.006.097.008.193.004.291l.006.387c.01.125.011.23.005.327l.003.196c.156.394.031.632-.032.719.01.199-.027.85-.048 1.21l-.002.037c-.004.09-.06.137-.133.137-.084 0-.103-.094-.104-.122l-.003-.126v-.003a84.337 84.337 0 0 0-.033-1.135c-.062-.087-.185-.325-.03-.717l.024-1.434-.01-.063-.006-.032a4.735 4.735 0 0 1-.039-.28c-.057-.052-.09-.154-.099-.29a.56.56 0 0 1 .13-.425l.002-.743a3.353 3.353 0 0 1 .002-.838v-.03a.342.342 0 0 1-.144-.19c-.04-.137.007-.301.137-.488l-.023-.506a5.234 5.234 0 0 1-.035-.823l-.008-.192a.815.815 0 0 1-.214-.596.185.185 0 0 1 .06-.127l.117-.112-.026-1.1c-.056-.026-.146-.084-.153-.174a7.582 7.582 0 0 0-.047-.348.281.281 0 0 1 .188-.313l.038-.699a.418.418 0 0 1-.159-.374.376.376 0 0 1 .217-.29L87.663.3V.286c-.001-.023-.006-.22.121-.252l.013-.003.032-.01zm-13.62 10.679c.05.064.109.12.169.173.079.068.153.15.219.243.299.416 1.917.633 2.391.619.357-.01.617.005.68.038l.028.015.006.036c.003.038-.025.058-.057.082-.025.019-.084.062-.08.088 0 .004.008.043.136.095.157.065 1.585.534 4.13 1.356.18.031.323.065.454.106.165.052.333.12.502.2.85.275 1.592.524 2.091.691.27.091.47.158.577.192a.132.132 0 0 1-.078.253l-4.834-1.413a3.728 3.728 0 0 1-.548-.158l-2.15-.618h-.002c-.02-.004-.321-.053-.498.117l-.009.008-.013.005c-.012.004-.117.036-.247-.092-.084-.082-.99-.572-1.878-.501a.852.852 0 0 1-.542-.22.908.908 0 0 0-.338-.196s-.1-.038-.127-.036c-.026.002-.112.172-.11.2.003.02.076.087.123.131l.038.036a.28.28 0 0 0 .205.085c.022 0 .035.001.036.01.002.032-.055.11-.079.13-.063.05-.153.037-.22.027l-.035-.005a.937.937 0 0 1-.208-.064c-.05-.02-.096-.038-.129-.045a.545.545 0 0 1-.199-.082 1.39 1.39 0 0 1-.28-.184.51.51 0 0 1-.062-.076c-.05-.06-.054-.134-.058-.207a.687.687 0 0 0-.012-.105c-.018-.034-.042-.065-.066-.096-.05-.065-.1-.128-.079-.215.037-.147.147-.22.256-.295.107-.071.214-.144.254-.283.105-.369.46-.283.644-.045zm29.096 20.008v-.443h-.161v-.073h.401v.073h-.16v.443zm.86-.515v.515h-.077v-.357l-.027.073-.119.284h-.078l-.118-.284-.027-.073v.357h-.077v-.515h.085l.176.436.176-.436zm-12.258 77.952h2.908l-1.131 1.015-1.96 3.138v2.372l.847 1.195h-3.181l.847-1.195v-1.972l-2.038-3.359-1.041-1.194h3.674l-.973 1.194h-.012l1.351 2.13.058.119 1.507-2.413zm-35.61 0h1.888l4.571 6.268v-5.42l-.862-.848h2.38l-.745.921v6.281l.392.518h-1.776l-4.072-5.344v4.501l.845.843h-2.359l.74-.915v-5.514zm14.844 5.252l.125.023-.125 2.445h-5.735l.688-1.194v-5.354l-.687-1.172h1.336v-.001h3.667v.001h.513v2.367h-.137l-1.023-1.683H67.59v2.753h2.916v.649H67.59v2.925h2.318zm10.012-5.252h2.393l-.78.969L80.328 116h-.698l-1.66-4.384-1.255 3.387h-.002l-.369.997h-.698l-2.839-7.191-.595-.665h3.125l-.915.687 1.877 4.948.02.071 1.234-3.335-.66-1.73-.57-.641h3.123l-.926.687 1.765 4.926 1.718-4.776zm20.31 6.633c-.778.815-1.808 1.222-3.09 1.222-.977 0-1.785-.359-2.427-1.077-.64-.717-.961-1.579-.961-2.585 0-1.264.39-2.302 1.168-3.117.777-.816 1.808-1.223 3.089-1.223.978 0 1.786.36 2.427 1.076.641.719.962 1.581.962 2.587 0 1.263-.389 2.301-1.168 3.117zm-.435-1.802c0-1.209-.245-2.234-.733-3.072-.487-.837-1.11-1.255-1.864-1.255-.588 0-1.038.214-1.352.643-.312.43-.469 1.008-.469 1.73 0 1.217.243 2.244.727 3.083.485.836 1.1 1.257 1.849 1.257.548 0 .994-.241 1.333-.721.339-.479.509-1.034.509-1.665zm5.979.079c-.132-.218-.214-.355-.356-.551l-.691.025v2.141l.847 1.195h-3.182l.848-1.195v-5.331l-.848-1.193h2.895c1.092 0 1.913.169 2.462.507.549.337.824.833.824 1.487 0 .406-.156.775-.469 1.105-.313.33-.706.66-1.262.863l1.731 2.652 1.214 1.105h-2.312c-.638-1.074-1.104-1.833-1.382-2.287a27.122 27.122 0 0 1-.163-.266l-.044-.072-.059-.097zm.573-4.122c-.38-.285-.902-.351-1.62-.351v3.291c.634-.016 1.153-.032 1.558-.348.404-.315.607-.732.607-1.25 0-.594-.167-1.06-.545-1.342zm8.591 6.932l.526-.71-2.115-2.891-.518.506v1.9l.848 1.195h-3.182l.847-1.195v-5.342l-.847-1.195h3.182l-.848 1.195v2.362l2.899-2.836-.312-.721h2.655l-1.333.816-2.283 2.232 2.895 3.827 1.351.857zM86.192 15.46c.142-.872.9-1.558 1.813-1.558h.001c.912 0 1.67.686 1.812 1.558.128.002 13.514 0 13.514 0l.594.42v.152H89.271s-.001-.233-.03-.445v-.003.005a1.247 1.247 0 0 0-1.235-1.097h-.001c-.636 0-1.163.48-1.236 1.097v-.005l-.001.003a4.028 4.028 0 0 0-.029.445H72.084v-.153l.594-.419s13.385.002 13.514 0zm9.864 7.007v-4.411l-.304-.322h1.556l-.307.325v4.407l.306.331H95.75zm2.681-.002l.306.332h-1.21l.305-.331v-4.407l-.303-.325h1.217l2.662 3.732s-.001-3.177 0-3.407l-.306-.325h1.222l-.307.325v4.408l.307.33h-1.163l-2.73-3.842zm-9.306-9.083c.017-.022.34-.47.823-1.143l.005-.007c1.126-1.567 3.118-4.34 4.164-5.77a.225.225 0 0 1-.024-.034v-.001a.17.17 0 0 1-.02-.085c.005-.06.04-.11.091-.133l.18-.083a.059.059 0 0 0 .033-.038l.043-.15a.048.048 0 0 1 .009-.017l1.703-2.537a.3.3 0 0 0 .05-.22l-.016-.095a.163.163 0 0 1 .051-.148.109.109 0 0 1 .135-.008l.721.518a.11.11 0 0 1 .037.13.165.165 0 0 1-.125.097l-.094.015a.296.296 0 0 0-.193.117l-1.831 2.445a.058.058 0 0 1-.015.014l-.128.089a.063.063 0 0 0-.026.043l-.02.197a.16.16 0 0 1-.098.129.17.17 0 0 1-.126-.004l-.089.12-.001.002-.002.002-.002.003c-.88 1.184-3.878 5.218-5.054 6.706 0 0-.12.168-.22.11-.097-.06-.02-.189.04-.264zm9.118-1.298c.027-.007.055-.014.082-.023.013-.004.034-.004.037-.017.004-.013-.014-.023-.022-.034a.313.313 0 0 0-.027-.027l-.008-.008c-.011-.01-.036-.017-.033-.032a.177.177 0 0 1 .063-.098c.003-.003.08.033.084.035.037.017.041.02.102.037.009.003.019.001.028 0 .103-.005.21.006.31-.019.18-.044.612-.188.908-.283l.256-.082.25-.079c.22-.073.438-.154.66-.221.174-.052.35-.093.527-.135.202-.047.402-.102.607-.133.094-.014.19-.004.285-.004.01 0 .024-.003.031.004a.69.69 0 0 1 .116.139c.039.064.058.139.09.207.02.043.085.083.066.127-.034.078-.116.131-.194.166-.022.01-.386.087-.504.114-.288.068-.579.128-.865.203-.177.047-.35.11-.525.165l-.028.009c-.132.042-.262.092-.396.126a5.424 5.424 0 0 1-.562.12c-.241.036-.485.047-.728.07h-.004l-.257.022c-.138.041-.206.108-.324.185-.006.004-.014.006-.022.009-.175.07-.35.145-.527.211-.054.02-.112.032-.168.047l-.024.006-.079.02c-.04.011-.079.024-.118.036-.127.038-.21.068-.366.106-.169.04-.339.071-.508.107a4.226 4.226 0 0 1-.057.011c-.06.012-.12.02-.18.035-.143.036-.285.077-.427.115l-.01.003-.435.115a.23.23 0 0 1-.022.004c-.041.007-.083.01-.124.019-.116.024-.232.053-.348.08l-.008.002c-.067.02-.135.035-.2.058-.148.052-.293.11-.439.166l-.032.014-.175.076-.053.022-.012.005c-.045.018-.09.039-.136.054-.062.02-.127.032-.188.053-.109.035-.214.079-.322.116-.134.045-.268.09-.403.13-.055.016-.112.021-.167.037-.059.018-.115.042-.173.063-.074.025-.146.052-.22.074-.054.016-.11.027-.165.04l-.129.032-.276.058c-.012.003-.025.004-.037.008l-.379.137c-.112.031-.226.052-.34.078-.145.032-.29.07-.436.096-.094.016-.19.036-.285.03-.049-.004-.131-.01-.134-.06-.003-.055.079-.08.125-.11.017-.012.04-.011.06-.016l.02-.005.046-.01.178-.048c.088-.024.233-.067.295-.086.023-.007.045-.017.068-.025.026-.01.052-.02.08-.028.159-.05.32-.095.48-.143l.111-.034c.049-.014.098-.027.146-.043.066-.021.131-.044.196-.066l.172-.06.017-.005.68-.224.348-.114.027-.009c.147-.05.296-.095.441-.15.042-.017.285-.127.397-.176l.436-.189.099-.042.014-.006c.184-.07.366-.141.55-.207.158-.057.59-.184.704-.216.077-.022.155-.039.233-.058l.126-.033c.087-.022.11-.024.206-.05.298-.084.596-.167.893-.255.101-.03.202-.063.301-.099.07-.024.138-.054.207-.08.097-.039.19-.08.289-.115.044-.016.09-.027.135-.04l.019-.005zM78.08 8.157s.24.088.359.223c.068.08.174.14.278.201.08.046.16.092.222.145l.032.029.038.035c.114.103.23.208.46.337.15.084.256.17.373.264.1.08.206.167.353.262.168.11.287.209.396.3.096.08.184.154.29.22.227.142.488.323.682.46l.232.164.002.001c.186.131.41.29.59.42l.77.557.008.006.002.002.829.6c.073.054.233.176.41.312h.002c.247.19.529.406.666.504l.099.071.087.063c.264.19.624.448.708.527.104.098.086.149.075.18v.001c-.01.033-.087.096-.227.004-.056-.037-.259-.177-.512-.353l-.002-.002c-.376-.26-.862-.599-1.15-.79-.134-.09-.272-.18-.406-.269-.346-.228-.662-.436-.792-.544a5.669 5.669 0 0 0-.604-.437 11.933 11.933 0 0 1-.727-.518c-.104-.084-.369-.25-.53-.352l-.06-.037c-.07-.044-.16-.111-.253-.182-.104-.079-.215-.162-.312-.223l-.158-.1c-.146-.09-.296-.182-.377-.255-.061-.055-.142-.11-.222-.165-.066-.046-.131-.09-.183-.134a3.256 3.256 0 0 0-.428-.314 2.994 2.994 0 0 1-.48-.334c-.118-.096-.26-.184-.382-.26-.112-.068-.208-.128-.256-.175-.072-.072-.246-.167-.355-.227a1.576 1.576 0 0 1-.086-.049c-.048-.033-.13-.116-.13-.116s-.15-.014-.195-.079a.442.442 0 0 0-.232-.15c-.09-.025-.284-.15-.374-.221a1.236 1.236 0 0 0-.181-.102c-.088-.044-.18-.09-.233-.138a.708.708 0 0 0-.336-.156c-.134-.031-.384-.09-.457-.298-.073-.209-.08-.348.054-.516.129-.16.459-.29.663-.08.123.125.195.218.249.288.048.062.082.105.122.133.027.018.064.038.11.061.096.052.231.124.38.24.135.106.372.337.55.51h.001c.114.112.204.2.228.216l.058.036c.092.057.243.15.262.204zM92.602 1.08c.024-.054.054-.12.18-.087.13.034.402.297.314.628-.056.212-.16.472-.282.773l-.199.506a65.29 65.29 0 0 1-.62 1.58c-.087.205-.154.358-.199.46l-.008.018c-.023.055-.039.09-.044.106l-.029.084v.003l-.077.227-.01.027c-.107.323-.264.792-.329.975a4.245 4.245 0 0 1-.122.316.523.523 0 0 0-.034.09c-.013.079-.033.139-.051.192l-.005.012a.975.975 0 0 0-.038.132c-.01.048-.032.103-.053.157l-.001.003c-.02.049-.04.1-.05.143a28.072 28.072 0 0 1-.524 1.603v.002l-.012.031-.025.073a5.098 5.098 0 0 1-.03.086c-.055.158-.07.223-.082.272l-.002.01-.005.02a.66.66 0 0 1-.016.062 7.98 7.98 0 0 1-.081.222l-.001.002-.001.003-.001.002v.003l-.074.197c-.218.59-.597 1.615-.729 2.054l-.151.515-.008.028-.001.002v.002c-.059.201-.113.387-.154.52-.03.098-.073.16-.127.182a.115.115 0 0 1-.097 0c-.011-.005-.019-.01-.027-.016-.078-.057-.057-.153-.019-.298.057-.211.31-1.057.37-1.253l.393-1.198.098-.298c.323-.978.711-2.156.805-2.46.09-.29.334-1.021.58-1.753l.038-.116c.202-.6.391-1.166.487-1.466.063-.19.113-.35.159-.5l.025-.08c.115-.366.225-.713.479-1.418a5.39 5.39 0 0 0 .118-.454c.073-.308.164-.692.266-.914zM80.83 4.87c.02.035-.005.092-.022.13v.004l.158.222.123.041c.017.013.117.163.123.182v.003l-.003.113.205.292.059.006c.033.006.06.024.077.048.022.028.049.07.066.098.009.017.014.035.016.055v.002l-.02.071.101.135.08-.01.005.002c.05.02.152.172.156.223v.003l-.02.089.381.534c.02.024.09.123.11.164a.62.62 0 0 1 .114.221.208.208 0 0 1 .01.011l.008.01.012.015c.04.048.103.128.123.179.002.005.004.011.004.017l.118.16.001.002.13.175c.144.14.263.312.364.462a.967.967 0 0 1 .091.168c1.268 1.784 3.257 4.553 3.285 4.589.104.132.002.233.001.234a.119.119 0 0 1-.085.036c-.049 0-.094-.029-.138-.081-.069-.085-2.284-3.02-2.732-3.615a.895.895 0 0 1-.268-.355 124.434 124.434 0 0 1-.785-1.045l-.365-.486a.06.06 0 0 1-.026-.01c-.069-.043-.088-.105-.109-.17l-.145-.193a.563.563 0 0 1-.143-.122.344.344 0 0 1-.069-.128.284.284 0 0 1-.007-.046l-.174-.236-.094-.009a.47.47 0 0 1-.142-.167l-.002-.003.013-.123-.178-.24h-.066l-.005-.003a.522.522 0 0 1-.095-.141V6.38l.016-.06-.118-.152-.046-.009a.154.154 0 0 1-.084-.047 1.448 1.448 0 0 1-.091-.117.148.148 0 0 1-.028-.095l.003-.063-.178-.238-.092-.1-.012-.017-.062-.109-.264-.356-.139-.07a.125.125 0 0 1-.032-.027.676.676 0 0 1-.086-.139.124.124 0 0 1-.005-.057v-.018l.003-.068-.553-.752-.13-.056a.134.134 0 0 1-.077-.096L79.07 3.6l-.187-.264a.119.119 0 0 1 .025-.163l.29-.215a.118.118 0 0 1 .166.027l.31.463.133.1c.028.02.05.053.059.088l.02.082.623.871.04.002c.082.004.137.03.167.082l.115.198zm5.432 4.406l.02.051c.064.155.102.314.133.45l.991 3.312a.141.141 0 0 1-.051.154l-.004.002a.088.088 0 0 1-.025.013.14.14 0 0 1-.174-.09l-1.174-3.512c-.256-.585-.456-1.216-.65-1.827-.058-.18-.115-.36-.174-.538-.187-.571-.369-1.16-.526-1.671v-.004l-.009-.026-.263-.784a.292.292 0 0 1-.07-.065.952.952 0 0 0-.045-.052l-.017-.018-.098-.09a.117.117 0 0 1-.037-.075 13.65 13.65 0 0 0-.029-.372 1.114 1.114 0 0 0-.038-.15l-.052-.17a2.367 2.367 0 0 1-.073-.271 1.333 1.333 0 0 0-.047-.182c-.037-.153-.031-.21-.025-.233a2.785 2.785 0 0 0-.13-.393c-.047-.048-.106-.122-.105-.187 0-.024.008-.045.023-.061a.076.076 0 0 0-.015-.013l-.018-.012-.026-.085-.137-.238a.133.133 0 0 1-.011-.027 1.97 1.97 0 0 0-.066-.215.502.502 0 0 1-.05-.15l-.008-.03-.097-.05a1.594 1.594 0 0 0-.146-.069c-.066-.023-.084-.095-.072-.16l-.001-.013a1.123 1.123 0 0 1-.004-.188c.011-.068.095-.122.12-.137l.013-.004.114-.037a.412.412 0 0 0 .056-.08c.002-.051.057-.081.16-.085l.105-.034a.111.111 0 0 1 .062-.001l.089.023.107.04.103.031c.05.014.082.058.082.108.001.091.003.157.006.183a.584.584 0 0 1-.004.102c-.002.027-.006.072-.002.084.005.018.016.057-.045.275l.221.605.089.35.058.154.007.004.08.074a.11.11 0 0 1 .045.06l.025.082a.11.11 0 0 1-.003.076l-.03.09.208.501a.1.1 0 0 1 .008.041l.003.059.014.046.084.076c.015.013.025.03.032.05l.14.448c.01.03.006.064-.01.09a.115.115 0 0 1-.066.053l.533 1.76c.038.093.076.198.122.338.163.49.29.935.393 1.358l.075.249c.067.15.145.325.213.506.056.15.068.3.074.44zm14.321-2.69c.215.437-.145.69-.528.82-.093.046-.407.237-.672.399-.186.113-.348.212-.395.237l-.327.173a.17.17 0 0 1-.064.08c-.025.016-.081.046-.132.026l-2.747 1.954-.026.018c-2.172 1.545-4.91 3.491-5.467 3.892a.116.116 0 0 1-.167-.034.116.116 0 0 1 .03-.154c.85-.64 7.803-5.783 8.12-6.012l.003-.008a.21.21 0 0 1 .058-.092.206.206 0 0 1 .113-.042l1.003-.83a.173.173 0 0 0 .06-.1.183.183 0 0 1 .011-.038.03.03 0 0 1 .03-.02c.012 0 .029 0 .047.002.05.004.114.01.173-.016v-.007c-.001-.063-.007-.384.309-.479.211-.064.466.023.568.23zm-3.307 24.12h-3.962l.313-.334v-5.545l-.31-.336h1.822l-.319.336v5.105l-.243.259h2.246l.587-.723zm-6.182 0l.311-.336-1.756-2.518h-.66v2.518l.312.337h-1.808l.315-.337v-5.543l-.31-.337h2.618c.951 0 1.936.764 1.725 1.932l.317-.011s-.55.625-.565.646l.21.157h-.001l-1.2.542.378.134 1.74 2.48.31.337zm-1.433-3.372c.664 0 1.009-.63 1.009-1.227 0-.475-.359-1.087-1.017-1.087h-.663v2.314zm-2.575-.063c.191.786-.04 1.667-.394 2.223-.53.829-1.552 1.395-2.77 1.395-1.831 0-3.395-1.234-3.395-3.257 0-1.77 1.346-3.236 3.394-3.225 1 .007 1.718.34 2.192.638-.613-.228-2.72-.637-3.76.75-.414.55-.572 1.256-.572 1.837 0 1.633 1.062 2.716 2.141 2.716.912 0 1.747-.662 1.992-1.923.167-.865-.196-1.647-.495-2.008-.308-.372-1.028-.734-1.654-.214-.374.31-.343.656-.24.905.182.383.637.373.637.373-.796.159-1.132-.459-1.037-.942.092-.464.645-1.216.645-1.216l1.735.023 1.383 1.294s.117.292.198.632zM72.563 24.83l-.331-.337h1.846l-.276.337 1.348 3.58 1.013-3.58-.302-.337h1.874l-.34.328 1.263 3.707 1.274-3.698-.296-.337h1.332l-.376.337-.374 1.088-.015.044v.002l-.01.027c-.494 1.44-1.307 3.807-1.599 4.648l-.312.337-1.752-5.13-1.311 4.77-.333.357zm34.686-6.257c-.218-.202-.727-.449-1.325-.449-1.264 0-1.947 1.112-1.948 2.158 0 1.31 1.011 2.122 1.948 2.122.321 0 .706-.068.937-.164v-1.567l.248-.263h-1.021l-.235.571-.521-.5s.027-.103.044-.143c.178-.411.667-.443 1.153-.445l1.782.001-.453.484.41.07-.45.526v1.496s-.85.446-1.907.446c-.754 0-1.605-.086-2.198-.722a2.75 2.75 0 0 1-.743-1.912c0-1.572 1.221-2.67 2.968-2.67.777 0 1.587.4 1.587.4l.583-.213-.403 1.333s-.214-.334-.456-.559zm-6.126 5.92c1.586 0 2.695 1.23 2.695 3.048a3.064 3.064 0 0 1-2.935 3.168h-3.18l.315-.336v-3.58l-.378-.79.396.167-.586-1.136.62.05-.512-.591zm-.815 5.7c1.205 0 2.265-1.085 2.266-2.624 0-1.28-.6-2.56-1.792-2.56h-1.578v4.925l-.242.258zm-7.15-7.588h1.065s-.19 1.45-1.983 1.45c-1.193 0-2.076-.5-2.657-1.196-.834-1.003-1.162-2.26-1.162-2.26l-.665-.002v1.87l.306.33h-1.558l.308-.331v-4.407l-.305-.326h2.271c.218 0 .442.05.649.15.499.232.809.689.809 1.19 0 1.027-1.012 1.405-1.012 1.405l.375.13s.292 1.025.873 1.879c.372.545.96 1.083 1.994 1.083.758 0 1.139-.354 1.222-.542l-.208-.213-.606.347zm-5.402-2.514h.697c.464 0 .836-.507.837-.984 0-.294-.175-.864-.83-.864h-.704zm3.522 1.71v-3.748l-.307-.32h2.28c1.532 0 1.994 1.105 1.994 2.137 0 1.218-.743 2.26-1.89 2.26h-2.344zm.701-.179h.936c.954 0 1.31-.955 1.31-1.76 0-.596-.2-1.623-1.236-1.623h-.773v3.13zm-6.057.845l.306.33h-1.611l.307-.33-.303-.832.228-.219h-2.44l-.461 1.051.306.33h-1.29l.307-.33.516-1.17-.407-.387h.58l1.264-2.851-.3-.326h1.696l-.302.327zm-2.347-3.69l-.94 2.133h1.72zm-14.236 4.422l-1.313-2.454.491.205-1.173-1.816.506.214-.934-1.615h1.59l.533 1.132-.46-.193.743 1.419-.402-.167.546 1.27.934-3.135-.309-.326h1.672l-.311.326 1.125 2.91.981-2.908-.306-.328h1.273l-.31.328-1.568 4.71-.252.352-1.598-4.183-1.207 3.906zm7.037-.4h-1.558l.308-.33v-4.412l-.305-.322h1.556l-.308.327v4.406zm4.289-5.066v.677l.398.242-.928.595.256.147-.714.476-1.66 2.422h2.196c.005 0 .578-.608.578-.608l-.127 1.113h-3.667v-.703l2.685-3.855h-2.054l-.665.698.177-1.204zm91.374 67.698l-.191.21v1.28l.196.275h-.748l.215-.275v-1.233l-.672 1.537h-.024l-.663-1.328v1.047l.206.252h-.528l.195-.252V85.7l-.218-.27h.513l.616 1.283.561-1.284zm-3.027.093v1.396l.191.276h-.724l.187-.277v-1.39h-.253l-.336.476h-.023v-.576h1.57v.576h-.019l-.337-.481zm-165.78-9.09c-1.124-.875-1.96-2.074-2.847-3.188-.162-.204-.187-.487-.276-.732-.04-.109-.09-.216-.109-.33-.017-.101-.066-.23 0-.308.338-.41.678-.868 1.16-1.092 1.2-.557 1.88-.617 2.923-.622.063 0 .125-.002.187.003.006 0 .004.01.006.015l.009.022c.006.018.027.035.02.052-.018.034-.056.053-.084.078-.057.052-.111.105-.17.153-.229.18-.463.352-.693.528-.404.31-.822.604-1.213.931-.117.099-.263.196-.304.344-.053.188-.02.4.046.583.038.105.155.162.246.224a320.46 320.46 0 0 0 4.969 3.325c.056.038.131.034.197.052.074.02.15.085.222.059.146-.054.263-.17.372-.28.023-.024 0-.067.001-.1l.002-.074.007-1.587c.005-1.584.013-3.17.016-4.754.007-3.496.01-6.992.015-10.489l.005-4.196-.003-.304c-.007-.73.035-.756-.672-1.75-.28-.392-.72-.641-1.06-.985-.05-.052-.07-.128-.103-.194-.015-.032-.05-.065-.038-.098.012-.032.06-.035.092-.05.066-.029.13-.073.203-.08.083-.007.89.017 1.04.017.684.003 1.369.001 2.053.001 1.381 0 2.763-.016 4.144.006.114.002.225.04.336.063.051.011.13-.007.151.04.023.05-.04.1-.065.149-.052.106-.092.22-.163.315-.222.296-.475.568-.713.851-.243.29-.389.327-.403.98-.104 4.796 0 9.595.001 14.393 0 2.404-.185 4.815 0 7.213.02.237.373.5.59.402 1.219-.545 2.27-1.41 3.365-2.173.454-.316.85-.707 1.275-1.06.495-.412 1.043-.769 1.486-1.236.164-.171.297-.407.3-.644.097-6.497.076-12.995 0-19.493-.008-.646-.985-1.453-1.237-1.732l-.164-.183c-.013-.015-.028-.028-.04-.044a5.17 5.17 0 0 1-.137-.182.062.062 0 0 1-.01-.023c-.024-.114-.128-.241-.07-.343.06-.105.217-.122.338-.131.636-.05 1.276-.028 1.914-.044 1.069-.028 2.138-.037 3.206-.086.578-.027 1.153-.086 1.728-.144l.808-.08a1.84 1.84 0 0 1 .26-.01c.083.005.165.025.247.038.036.006.093-.014.107.019.018.04-.026.084-.043.125-.036.085-.057.18-.115.252-.072.09-1.877 1.775-1.9 2.654-.095 3.764-.01 7.53-.019 11.294-.001.906-.006 1.812-.01 2.717-.002.794-.135 1.598-.009 2.381.031.19.26.355.452.355.867.003 1.713-.286 2.577-.344 2.464-.163 4.933-.214 7.4-.318.063-.002.127 0 .191 0 .206-.002.42-.027.616.033.16.05.36.127.414.285.047.14-.071.304-.18.405-.586.545-2.909 1.745-2.87 3.2.034 1.297.414 2.562.622 3.844.07.43.171.855.257 1.283l.66 3.267c.038.195.138.734.246.846.181.19.454.506.684.383 2.487-1.332 1.756-2.648 1.733-5.265-.024-2.742-.436-13.034-.474-13.823-.018-.386-.096-.766-.15-1.147-.015-.108-.095-.672-.201-.743-.263-.176-.58-.313-.896-.313-.202 0-.355.194-.516.316-.823.623-1.738 1.153-2.433 1.917-.334.367-.456.893-.564 1.377-.08.358.068.737.014 1.1-.02.138-.098.305-.23.35-.124.042-.292-.039-.36-.15-.745-1.188-1.733-2.311-2.037-3.68-.429-1.925 1.198-2.704 2.406-3.435.788-.477 1.61-.895 2.417-1.34.308-.169.615-.339.926-.502.082-.043.169-.079.253-.118.003-.001.006-.004.008-.003.41.091.853.089 1.227.279.247.126.365.417.548.625l1.23 1.396.283.32.002.002c.366.4.853.714 1.098 1.198.677 1.335 1.36 2.712 1.631 4.184.285 1.55.002 3.151.006 4.727 0 .22.004.44.008.66.038 2.653.043 5.307.119 7.959.017.614-.08 1.272.162 1.837.154.36.603.501.93.716.045.03.108-.001.161 0 .101 0 .202-.006.303.005.064.007.125.032.187.05.026.008.067.001.077.026.011.031-.02.064-.033.094-.027.06-.043.127-.087.175-.164.184-.356.342-.532.513-.252.245-.51.485-.754.737-.276.284-.537.581-.806.872-.248.268-.487.546-.744.806-.521.53-1.366 1.645-2.348 1.489-.388-.062-.686-.41-.945-.706-.125-.142-.103-.363-.153-.545-.084-.307-.057-.536-.56-.55-.181-.004-.333.147-.492.235-.65.358-1.013.698-1.737 1.04-.353.167-.735.513-1.104.387-.729-.246-1.25-.897-1.844-1.386-.045-.037-.03-.111-.043-.167-.292-1.208-.613-2.41-.873-3.625-.372-1.734-1.058-3.447-1.024-5.22.024-1.196.643-2.324 1.192-3.388.17-.327.909-.741 1.257-1.113.057-.06.102-.13.151-.197.023-.032.052-.06.065-.098.004-.01-.013-.02-.02-.03-.014-.023-.016-.066-.044-.07-.077-.01-.154.023-.231.036-.191.032-.383.06-.573.1-1.22.259-5.515.032-6.415 2.32-.176.449-.054.963-.055 1.445-.018 7.01-.198 14.022-.001 21.029a9.942 9.942 0 0 0 .687 3.396c.253.631.864 1.05 1.303 1.571.025.03.06.05.087.076.195.187.424.344.582.563.216.3.214.615-.235.69-.253.043-.514-.026-.767-.071-.237-.042-.463-.133-.697-.189-.43-.103-.854-.25-1.295-.287-2.758-.229-3.286-.144-5.632-.02-.327.018-.654.056-.981.069-.203.008-.433.094-.608-.009-.172-.1-.324-.321-.297-.519.03-.21.289-.311.434-.466.004-.005.009-.008.014-.012.141-.114.899-.715.932-.774.509-.903 1.003-1.832 1.3-2.826.243-.81.281-1.675.3-2.52.09-4.2.018-8.4.024-12.6.003-1.322.007-2.645.002-3.967 0-.004.144-1.011-.377-.81-.44.169-.763.56-1.173.792a115.883 115.883 0 0 1-4.689 2.533c-.503.256-.712-.005-.953.524-.044.097-.012.212-.012.318-.004 1.31 0 2.62 0 3.93-.001 3.401-.157 6.807-.004 10.205.054 1.212.869 1.76 1.545 2.608.058.072.085.164.124.248.018.038.07.083.047.119-.023.037-.087.01-.131.012-.093.004-.186.02-.277.005-.354-.055-.701-.144-1.053-.212-.632-.122-1.26-.272-1.898-.358-.652-.087-1.311-.109-1.967-.163h-.004c-.13-.007-.26-.015-.391-.02-.62-.026-1.241-.05-1.862-.074l-.827-.028h-.01c-.046 0-.088.007-.134-.009-.08-.026-.156-.067-.233-.1l-.05-.024c-.016-.007-.048-.004-.047-.02 0-.04.03-.071.05-.104.04-.07.068-.15.126-.206.52-.49 1.147-.872 1.603-1.422.289-.348.57-.771.59-1.224.182-4.33.146-8.671.008-13.004-.008-.269-.218-.528-.444-.673-1.368-.878-2.989-1.355-4.271-2.353zM95.46 65.15c-.08-.125-.188-.35.111 15.764 0 .038-.078.036-.112.02-.032-.015-.031-.063-.045-.095-.034-.075-.072-.149-.1-.226-.1-.272-.19-.547-.284-.82-.179-.519-.34-1.044-.547-1.552-.12-.294-.286-.567-.43-.85-.014-.025-.022-.053-.043-.073-.049-.046-.106-.082-.162-.12-.027-.017-.054-.054-.085-.046-.033.009-.039.055-.055.084-.03.06-.066.117-.086.18-.012.039-.007.08-.01.12-.022.422-.063.844-.063 1.267.003 2.432.046 4.863.075 7.294.005.465.018.93.028 1.394l.015.662.001.2c0 .027.014.058 0 .081-.015.025-.046.04-.075.045-.013.002-.02-.02-.03-.028l-.04-.037c-.048-.048-.101-.092-.14-.147-.102-.14-.188-.291-.282-.437v-.001c-.15-.226-.615-1.032-.937-1.158-.133-.052-.343.005-.408.132-.152.3-.145.66-.166.996-.081 1.26-.1 2.524-.142 3.786-.058 1.763-.106 3.526-.157 5.289l-.05 1.74-.058 2.058c-.029 1.002-.035 2.004-.086 3.005-.011.223-.078.884-.099.662-1.093-11.741-2.299-23.475-3.12-35.239-.025-.347.468.517.712.767.32.328.6.708.98.966.085.058-.002-.205-.008-.307-.009-.168-.005-.337-.033-.503-.465-2.736-.958-5.467-1.444-8.199-.056-.313-.12-.624-.18-.936-.045-.228-.097-.454-.135-.682-.012-.076-.012-.153-.017-.23-.002-.033-.013-.068-.003-.1.006-.016.03-.017.044-.027.013-.007.025-.03.038-.023.018.011.101.092.152.136l.327.29.063.054c.038.034.076.069.115.101.163.132.284.357.49.392.437.075.463-.119.46-.325-.008-.661.02-1.324-.03-1.983-.093-1.238-.264-2.47-.396-3.704-.048-.443-.1-.886-.15-1.33-.123-1.093-.244-2.187-.366-3.28a12993.915 12993.915 0 0 0-.275-2.46l-.027-.235c-.042-.395-.008-.805-.124-1.185-.354-1.153-1.33-1.608-2.213-2.373-.095-.082-.179-.178-.267-.269-.054-.055-.161-.091-.158-.168.003-.058.112-.031.168-.044.082-.02.163-.046.247-.053 1.192-.09 2.387-.16 3.58-.238 1.703-.111 3.406-.221 5.11-.328.796-.05 1.593-.095 2.39-.142.619-.037 1.238-.066 1.855-.11.075-.005.148-.025.222-.039l.035-.008.026-.005c.016-.004.032-.01.048-.01.29-.003.666-.207.869 0 .798.816 1.275 1.894 1.913 2.842.913 1.356 1.909 2.66 2.738 4.068.212.361.308.787.364 1.202.077.566.026 1.142.03 1.714.01 1.493.064 2.987.01 4.48-.043 1.2-.201 2.393-.302 3.59v.002c-.051.482-.1.963-.153 1.445-.029.259-.062.518-.092.777-.057.485-.344 1.13.288 1.438.284.138.626.086.939.128.24.032.483.053.722.093.312.054.615.194.932.19a.424.424 0 0 0 .333-.204c.088-.147.061-.338.091-.506.105-.593.06-.851.534-1.322.192-.19.457-.292.686-.436.685-.429 1.365-.866 2.056-1.286.784-.476 1.578-.936 2.368-1.402 1.07-.632 1.26-1.055 2.592-.513.3.122.458.456.685.686.593.602 1.205 1.185 1.773 1.81.435.479.822.999 1.231 1.5.036.044.087.081.105.135.14.414.305.826.368 1.259.092.637.063 1.285.093 1.928.062 1.36.141 2.72.183 4.082.028.905.063 3.004.069 4.428l.009 2.455c.002.364.582 4.252-.701 5.092-1.862 1.219-3.919 2.13-5.985 2.957-.798.319-1.845-1.134-2.083-1.373-1.167-1.169-2.748-2.613-3.678-4.055a2.01 2.01 0 0 1-.335-.963c-.196-3.853.074-7.73-.301-11.57-.045-.464-.534-.8-.93-1.046-.279-.173-.65-.092-.976-.136-.341-.046-1.377-.46-1.863-.046-.144.123-.239.295-.358.442-.11.137-.191.304-.331.411-.584.446-1.153.937-1.824 1.235-.905.402-1.868.709-2.849.84-.291.04-.63-.116-.81-.35-.805-1.046-1.355-2.267-2.065-3.381zm15.973-1.42c.012.078.021.156.031.234.023.18.046.36.085.537.051.231.21.315.437.22.106-.045.212-.095.307-.16 1.225-.814 2.061-1.924 2.491-3.334.018-.06.006-.127-.005-.196a1.156 1.156 0 0 1-.014-.099c-.03.005-.063.007-.096.01-.07.004-.141.008-.191.043-.879.625-1.754 1.259-2.626 1.895-.282.208-.44.484-.419.85zm1.741 2.013c-.444.076-.886.152-1.329.234-.504.092-.652.27-.665.784-.003.117.004.235.01.352.005.084.009.17.01.254.041 2.383.081 4.765.117 7.147.023 1.6.04 3.2.058 4.798v.007c.004.526.114 1.019.484 1.416.44.472.883.943 1.337 1.403.274.28.457.309.805.136.262-.13.521-.265.78-.4.399-.207.799-.415 1.206-.604.569-.264.783-.707.783-1.297l.001-2.431h-.024c0-.288.003-.576.006-.863.008-.629.015-1.258-.013-1.886-.103-2.375-.235-4.749-.367-7.122v-.012a23.954 23.954 0 0 0-.109-1.193v-.002l-.056-.534c-.052-.555-.221-.682-.776-.584l-.651.116-.007.001h-.004l-.39.07-.513.09-.69.12zm-14.168-1.33c-.5-.127-1.005-.239-1.48-.344l-.547-.121c-.298-.003-.403.135-.284.316.372.56.757 1.113 1.156 1.654.148.202.366.183.521-.002.28-.331.547-.672.795-1.026.147-.21.082-.416-.161-.478zm-3.987-2.091a99.353 99.353 0 0 1 3.62-.352c.605-.047.788-.203.765-.82l-.037-.868c-.02-.462-.04-.924-.057-1.386-.074-2.166-.146-4.332-.217-6.499v-.01l-.001-.011-.071-2.153c-.014-.383-.026-.765-.038-1.147-.024-.765-.048-1.53-.08-2.294-.025-.557-.07-.585-.641-.608l-1.503-.06h-.008c-.672-.026-1.344-.052-2.016-.08-.471-.02-.499-.004-.492.465.011.813.025 1.627.039 2.44v.003c.023 1.404.047 2.808.06 4.212.01 1.255.008 2.51.005 3.766l-.003 1.704h.13v3.24c0 .52.018.518.512.461zM82.21 63.496v.001a256.555 256.555 0 0 1-2.165 5.014c-1.43 3.19-2.866 6.38-4.37 9.538-1.248 2.614-2.699 5.12-4.15 7.627-.388.672-.778 1.345-1.163 2.02l-.726 1.267v.002l-.006.01c-.782 1.363-1.563 2.727-2.327 4.1-.319.573-.688.867-1.398.78-.976-.119-1.955-.197-2.934-.275h-.001a149.45 149.45 0 0 1-1.387-.115l-1.049-.089a69.239 69.239 0 0 1-2.81-.272 71.559 71.559 0 0 1-2.646-.396c-.442-.071-.884-.143-1.326-.21-1.88-.287-3.685-.813-5.384-1.676a18.702 18.702 0 0 1-1.364-.756c-.424-.263-.481-.453-.273-.894.436-.924.887-1.841 1.35-2.75.108-.21.27-.405.445-.566.516-.479 1.048-.94 1.58-1.401.276-.237.61-.335.967-.324 1.224.04 2.448.086 3.67.145a.721.721 0 0 1 .288.105c.044.022.088.045.131.064-.032.03-.062.063-.093.096-.07.076-.141.152-.228.193-.905.431-1.813.853-2.727 1.265-.304.136-.55.322-.683.63l-.163.373a40.96 40.96 0 0 0-.716 1.701c-.188.485.006.805.517.863.762.086 1.526.157 2.289.229h.003c.368.034.737.069 1.105.105l1.71.17h.015c1.133.113 2.266.225 3.4.333.879.085 1.758.164 2.637.243l.015.002 1.295.117c.503.047.86-.136 1.109-.599 1.279-2.37 2.565-4.735 3.852-7.1l1.72-3.165c.21-.388.271-.798.178-1.233-.592-2.76-1.183-5.52-1.772-8.282-.348-1.63-.694-3.26-1.033-4.893-.097-.468-.275-.88-.656-1.188a.97.97 0 0 1-.202-.207c-.045-.068-.077-.145-.11-.222a3.188 3.188 0 0 0-.04-.094c.032-.015.063-.033.095-.05.067-.038.133-.076.203-.082a86.818 86.818 0 0 1 1.962-.144c.54-.033 1.08-.06 1.621-.088l.303-.016a287 287 0 0 0 .503-.027h.05l.05-.001c.091-.003.184-.005.276.006a.428.428 0 0 1 .14.049c.02.01.04.019.061.027a.63.63 0 0 0-.014.035l-.011.032a.332.332 0 0 1-.065.127l-.026.026c-.122.12-.247.242-.391.332-.416.254-.508.622-.427 1.07a283.769 283.769 0 0 1 .425 2.42l.164.939c.359 2.042.717 4.083 1.079 6.123.04.237.099.472.172.699.063.196.196.204.319.05a1.54 1.54 0 0 0 .201-.349l.42-1.015c1.449-3.497 2.897-6.993 4.022-10.614.039-.125.071-.251.103-.377l.01-.041c.087-.342.004-.628-.273-.855-.283-.234-.563-.47-.839-.712a.463.463 0 0 1-.092-.138 1.073 1.073 0 0 0-.038-.07.562.562 0 0 0 .039-.015l.039-.018a.367.367 0 0 1 .17-.05c1.064.056 2.126.12 3.188.182l.307.018.57.032c.532.03 1.064.06 1.595.105.447.039.53.181.358.588-.215.504-.428 1.008-.641 1.512zm57.632-3.043c-.13.108-.249.23-.36.358-.016.018-.01.047-.013.071-.015.12-.042.238-.041.358.011 2.055.047 4.11.076 6.164.014 1.022.035 2.045.053 3.067v.016c.02 1.2.043 2.4.061 3.6.036 2.449.082 6.81.12 9.173.01.625.03 1.25.045 1.875.026 1.106-.296 2.323.675 3.157.453.388 1.05.566 1.576.849.45.243.85.623 1.35.73.774.165.848.025 1.106-.287l.146-.177c.238-.292.612-.514.713-.877.068-.247-.043-.602-.271-.718-.5-.256-1.11-.181-1.666-.27-.405-.065-.813-.116-1.216-.195-.15-.03-.305-.06-.44-.131-.068-.036-.099-.118-.144-.18-.022-.03-.065-.058-.059-.095.006-.035.055-.043.085-.06.063-.037.121-.095.194-.1.375-.025.752-.002 1.128.013 1.532.062 3.064.124 4.594.22.124.008.242.058.362.09.017.004.033.012.05.017l.046.015c.024.008.072-.003.072.022 0 .035-.048.05-.072.076l-.044.05c-.082.092-.184.165-.274.25-.367.347-.78.652-1.096 1.047-.476.596-.842 1.271-1.263 1.907l-.002.002c-.127.191-.25.386-.382.573-.095.134-.153.317-.299.392-.265.135-.58.276-.868.203-.598-.151-1.102-.554-1.648-.84-.684-.359-1.36-.73-2.041-1.094-1.403-.747-2.906-1.328-4.21-2.236-.388-.271-.644-.75-.739-1.214-.163-.798 0-1.63-.008-2.445a1615.85 1615.85 0 0 0-.064-5.572c-.017-1.297-.039-2.593-.058-3.89l-.026-1.71v-.01c-.03-1.873-.058-3.745-.091-5.618-.029-1.631-.063-3.262-.095-4.893-.006-.326-.007-.653-.02-.979-.005-.125.037-.27-.034-.374-.504-.734-.842-.498-1.708-.519-.215-.005-.43-.007-.645-.014-.144-.005-.515.01-.348-.362.004-.009 1.18-1.403 1.229-1.46.92-1.105 2.72-3.3 3.274-4.05.493-.67.908-1.392 1.354-2.093.205-.324.396-.657.599-.982.071-.114.149-.224.223-.335l.002-.003c.043-.057.075-.124.121-.18.005-.005.016.004.024.006l.028.006c.017.003.04-.003.051.01.018.024.016.059.025.087l.001.001c.015.067.04.132.043.2.034.701.047 1.404.07 2.106l.001.035c.04 1.185.07 2.37.121 3.555.014.313.049.625.073.937v.001c.008.08-.018.173.024.242.301.503.446.402 1.031.432.15.008 1.912.03 1.938.04.278.109.461.391.624.641.058.089 0 .212.001.318.001.39.071.52-.417.799-.144.082-.33.027-.496.041-.43.037-.86.07-1.29.112-.258.025-.515.058-.772.088-.03.004-.066-.008-.089.011zM128.389 71.94a1025.35 1025.35 0 0 0-.1 3.497c-.034 1.315-.062 2.63-.089 3.944l-.028 1.32-.029 1.397v.007c-.023 1.19-.047 2.381-.077 3.572a.95.95 0 0 0 .308.745 180.72 180.72 0 0 1 1.538 1.546l.564.57.038.037c.036.035.072.07.101.109l.026.034c.107.14.234.305.077.444-.106.094-.353.108-.498.054-.194-.073-.369-.197-.542-.32l-.062-.043-.03-.021-.03-.02-1.55-1.076c-1.076-.748-2.151-1.496-3.235-2.23-.418-.281-.581-.63-.579-1.112.003-.808-.001-1.615-.005-2.423l-.005-1.37-.016-7.914-.007-4.102-.009-4.304-.014-6.437c0-.125-.004-.252-.026-.375-.062-.336-.201-.473-.542-.49-.574-.03-1.149-.053-1.724-.077h-.005c-.349-.014-.697-.028-1.046-.044a4.588 4.588 0 0 1-.545-.052.577.577 0 0 1-.174-.072l-.015-.008-.019-.01a.602.602 0 0 0-.044-.023c.015-.028.027-.058.04-.088.028-.065.055-.13.103-.173.214-.198.433-.39.652-.584.309-.273.618-.547.917-.831l.068-.065c1.702-1.621 3.405-3.243 5.084-4.89.327-.32.61-.686.893-1.05.114-.148.229-.295.346-.44.069-.084.127-.177.185-.27l.083-.13.074.04.081.043c.007.044.016.088.025.131.02.099.041.197.042.296.013.769.023 1.537.033 2.305.011.824.022 1.647.036 2.47.013.823.173.975.989.99l.437.007c.279.003.558.006.837.016.543.02.699.167.729.711.018.33.018.662.019.994v.104c0 .268-.141.413-.408.426-.578.027-1.155.053-1.733.07-.428.013-.712.11-.726.647-.015.686-.038 1.372-.062 2.057-.016.471-.032.942-.046 1.413l-.126 4.645-.002.082-.105 3.861c-.022.819-.047 1.638-.071 2.456zm28.865 14.104a.402.402 0 0 1 .073-.043c1.472-.665 2.222-1.872 2.563-3.39.188-.838.165-1.683.141-2.528l-.003-.11-.004-.144-.004-.186c-.032-1.525-.064-3.048-.091-4.572l-.063-3.68v-.01l-.053-3.138c-.032-1.796-.067-3.59-.101-5.386l-.002-.082a2.792 2.792 0 0 0-.016-.29c-.079-.581-.166-.672-.743-.774-.767-.136-.79-.203-.285-.804 1.345-1.605 2.69-3.208 4.037-4.812.086-.103.177-.205.28-.292.235-.197.386-.145.427.158.068.496.133.994.173 1.493.062.797.254.899.936.469l.106-.067.134-.086.132-.084c.38-.243.76-.485 1.149-.712.435-.255.647-.183.879.274l1.8 3.57.011.022 1.064 2.113c.183.361.273.738.223 1.141a.569.569 0 0 1-.112.281 24.897 24.897 0 0 1-3.575 3.617c-.06.048-.123.095-.191.131-.225.12-.4.036-.387-.22.008-.192.074-.398.167-.57.169-.312.371-.608.573-.902.25-.363.287-.737.147-1.153a459.29 459.29 0 0 1-.919-2.75v-.002l-.001-.002-.001-.002-.386-1.162c-.143-.426-.43-.639-.804-.597-.352.038-.651.34-.672.756a29.152 29.152 0 0 0-.019 1.823c.007.545.019 1.091.031 1.637.009.409.018.818.024 1.227l.048 2.993v.027c.022 1.434.045 2.868.069 4.301l.016.964c.03 1.839.06 3.678.102 5.517l.002.093c.033 1.462.066 2.924.351 4.37.267 1.349 1.046 2.289 2.226 2.936l.393.214.256.138-.034.111c-3.466-.089-6.847-.697-10.172-1.651l-.008-.047-.008-.037.063-.047.058-.044zm-8.804-16.866c-.308-.026-.434.077-.448.388-.014.27-.011.54-.008.81.002.115.003.231.003.347h.007l.048 1.875.001.007c.045 1.783.091 3.566.145 5.349.024.79.062 1.58.146 2.364.028.256.178.534.349.735a38.002 38.002 0 0 0 1.527 1.661c.126.131.372.33.445.29.158-.091.295-.299.347-.486.317-1.13.621-2.264.926-3.398l.15-.56.211-.782c.138-.511.276-1.022.429-1.529.029-.095.123-.23.198-.239.084-.009.212.085.269.168a134.09 134.09 0 0 1 1.607 2.405c.262.402.248.794-.044 1.207a184.653 184.653 0 0 0-2.837 4.123c-.345.52-.758.74-1.38.666-.455-.053-.914-.084-1.372-.116-.321-.022-.642-.044-.961-.073-.455-.042-.815-.262-1.086-.637-.297-.413-.597-.824-.896-1.235l-.001-.001c-.637-.875-1.274-1.75-1.891-2.64a1.825 1.825 0 0 1-.307-.996c.022-1.808.074-3.617.126-5.426l.026-.936c.027-.979.059-1.957.09-2.935l.053-1.66.037-1.205c.037-1.15.073-2.3.102-3.45.015-.649.228-1.173.718-1.634.834-.785 1.649-1.593 2.463-2.4l.001-.001.003-.004.003-.002c.341-.339.682-.677 1.025-1.014.034-.034.07-.067.106-.099.627-.55.821-.568 1.526-.123l.727.457c.901.566 1.801 1.13 2.688 1.718.252.167.514.425.61.698.445 1.254.868 2.515 1.291 3.776.189.565.378 1.13.569 1.693.185.545.112 1.021-.239 1.494-.307.413-.59.845-.873 1.276l-.002.002c-.14.213-.28.427-.423.638-.453.67-.65.752-1.426.562-.727-.177-1.454-.358-2.182-.54h-.002c-.636-.159-1.273-.318-1.911-.474a4.32 4.32 0 0 0-.683-.114zm-.291-3.15V66.619l.001.102c.001.476.085.596.55.696.353.075.71.13 1.067.187l.157.025.27.042.292.047c.621.1 1.243.2 1.867.279.505.065.612-.084.427-.552-.27-.69-.551-1.376-.838-2.06-.276-.662-.555-1.324-.834-1.985l-.004-.01c-.393-.933-.785-1.865-1.172-2.8-.242-.582-.596-.515-1.005-.377-.412.14-.571.463-.586.873l-.184 4.941zm-102.24-9.56c-.239-.022-.478-.04-.716-.06-.29-.022-.58-.044-.87-.074-.077-.008-.151-.048-.225-.087-.034-.019-.068-.037-.103-.052.02-.03.04-.063.057-.096a.595.595 0 0 1 .14-.19c1.732-1.345 3.47-2.685 5.207-4.024l.084-.066c.045-.035.094-.066.144-.096.237-.14.354-.091.388.189.023.2.037.4.05.601l.025.35c.057.673.115 1.346.177 2.018.005.058.021.116.042.189.01.04.023.084.035.135.057-.032.11-.06.161-.087.099-.052.186-.099.268-.153.385-.256.769-.514 1.152-.771.185-.125.37-.25.555-.373.08-.054.162-.108.246-.154.367-.204.518-.18.744.174.613.965 1.067 2.01 1.418 3.092.315.968.592 1.949.87 2.93l.27.949c.177.615.045 1.105-.495 1.526-.514.399-1.004.828-1.494 1.257-.265.232-.531.464-.8.692a1.94 1.94 0 0 1-.506.323c-.092.038-.262.003-.337-.065-.04-.035-.034-.119-.028-.204.002-.038.004-.077.003-.112 0-.008.007-.018.014-.024.523-.59.37-1.254.22-1.906l-.022-.097a506.21 506.21 0 0 0-1.113-4.735l-.045-.19c-.092-.381-.204-.428-.553-.273-.477.21-.478.23-.453.793.05 1.137.093 2.275.136 3.413l.017.461c.088 2.362.176 4.723.261 7.084.026.72.05 1.439.073 2.158v.002l.072 2.15c.075 2.11.154 4.22.233 6.331.016.444.18.821.527 1.116.38.325.757.658 1.126.998.049.045.077.111.106.178a3.558 3.558 0 0 0 .039.085c-.029.013-.057.029-.085.045-.062.035-.125.07-.19.074-2.214.123-4.429.24-6.643.356H46.1l-.085.004-.039.003c-.056.004-.111.007-.163-.005-.068-.016-.134-.043-.2-.069l-.08-.031c.013-.03.023-.061.033-.093a.471.471 0 0 1 .086-.182c.322-.345.647-.69.99-1.014.393-.37.504-.833.495-1.34-.034-1.872-.072-3.743-.114-5.614-.056-2.594-.115-5.189-.174-7.782a1342.284 1342.284 0 0 0-.233-8.91c-.017-.564-.143-.695-.697-.747zm19 5.116a.54.54 0 0 1-.003-.467c.329-.554.483-1.152.402-1.774a32.195 32.195 0 0 0-.478-2.668 8.574 8.574 0 0 0-.479-1.45c-.2-.48-.581-.507-.856-.06-.136.22-.196.5-.237.76a4.504 4.504 0 0 0-.035.728v.139l.002 5.362c.001 4.766.003 9.533-.014 14.299-.003.924.124 1.758.753 2.469.107.12.192.264.277.405l.03.05c.131.22.076.327-.182.322a10.61 10.61 0 0 1-.894-.059c-1.622-.165-3.214.035-4.797.368l-.017.006a.027.027 0 0 1-.01.002l-.06-.005a67.13 67.13 0 0 1-.348-.032c.018-.036.035-.074.052-.112.034-.08.07-.16.12-.228.19-.245.388-.482.593-.712.476-.537.708-1.161.715-1.876l.02-1.511c.009-.586.017-1.172.023-1.758.014-1.511.027-3.023.039-4.534.01-1.345.022-2.69.034-4.034.014-1.537.032-3.075.05-4.612l.008-.656c.005-.409.01-.818.013-1.228.013-1.153.025-2.306.05-3.459.008-.404-.131-.689-.477-.883-.062-.035-.121-.075-.18-.115l-.063-.042c-.409-.269-.445-.495-.073-.821.39-.343.794-.67 1.198-.996l.409-.331.027-.023c.76-.62 1.521-1.242 2.287-1.856.055-.045.129-.066.202-.088.034-.01.067-.02.099-.032.01.03.022.06.034.09.027.065.053.13.054.196.009.48.013.961.018 1.442l.009.902c.002.137.01.274.017.412l.008.158.082.057.145-.097c.1-.066.199-.13.292-.204a164.527 164.527 0 0 0 1.466-1.18l.013-.01c.094-.075.188-.149.285-.218.418-.297.57-.272.76.194.383.934.745 1.876 1.106 2.817l.034.088c.39 1.01.772 2.021 1.155 3.033l.088.234c.158.418.063.763-.285 1.058-.612.521-1.219 1.048-1.826 1.575l-.911.79a1.89 1.89 0 0 1-.253.19c-.167.103-.374.171-.49-.015z"/></g></g></svg>