<?xml version="1.0" encoding="UTF-8"?>
<svg width="168px" height="35px" viewBox="0 0 168 35" version="1.1" xmlns="http://www.w3.org/2000/svg" xmlns:xlink="http://www.w3.org/1999/xlink">
    <!-- Generator: Sketch 63.1 (92452) - https://sketch.com -->
    <title>Fill 55</title>
    <desc>Created with Sketch.</desc>
    <g id="ðŸ–¥ï¸-Desktop" stroke="none" stroke-width="1" fill="none" fill-rule="evenodd">
        <path d="M56.1407538,0.0978923077 C56.1754112,0.167109091 56.2450196,0.207542657 56.2832014,0.275095105 C56.3211874,0.342353846 56.3679846,0.404717483 56.4108657,0.469137063 C56.9635231,1.30022797 57.5156909,2.13171049 58.0697189,2.96201818 C58.2654252,3.25543077 58.4662224,3.54571049 58.6647678,3.83706713 C58.6889497,3.8728014 58.7127399,3.90882937 58.7379007,3.94358462 C58.8891594,4.15240979 58.960628,4.38757063 58.9674811,4.64378042 C58.9710056,4.77281538 58.9714951,4.90185035 58.9740406,5.03088531 C58.9857888,5.62466154 58.9943063,6.21863357 59.0104601,6.81201818 C59.0287678,7.48392028 59.0064462,8.15484336 58.9688517,8.82517902 C58.9430056,9.28003217 58.9032573,9.73478741 58.8418727,10.1868993 C58.7712853,10.7068573 58.7012853,11.2268154 58.6343203,11.7472629 C58.6210056,11.8492769 58.6200266,11.9529552 58.6168937,12.0560462 C58.6149357,12.1148853 58.6518448,12.1537524 58.702558,12.1722559 C58.7667818,12.1959483 58.833649,12.2159203 58.9010056,12.2278643 C59.019565,12.2487175 59.1392014,12.2644797 59.2588378,12.2779902 C59.4639427,12.3008993 59.6701245,12.3160741 59.8747399,12.3427035 C59.993593,12.358172 60.1107818,12.3884238 60.2277748,12.415249 C60.2779986,12.4265077 60.3259706,12.4468713 60.3754112,12.4616545 C60.431607,12.4784937 60.4724322,12.4520601 60.4871175,12.3895986 C60.4972014,12.3476965 60.5069916,12.3055986 60.5139427,12.2633049 C60.5381245,12.1189972 60.5602503,11.9744937 60.5847259,11.8304797 C60.5977469,11.754214 60.6135091,11.678242 60.6296629,11.6025636 C60.6520825,11.4975147 60.7088657,11.4127315 60.7912014,11.3454727 C60.8378028,11.3073888 60.8868517,11.2724378 60.9358028,11.237193 C61.4039706,10.8995287 61.8900545,10.590158 62.4026699,10.3244517 C63.0141664,10.0073469 63.6080406,9.66057762 64.1833133,9.28179441 C64.2694671,9.22501119 64.3582643,9.17214406 64.4468657,9.11898322 C64.5964601,9.02920699 64.7529077,9.01638182 64.9176769,9.07561259 C64.9840545,9.0994028 65.0424042,9.13288531 65.0918448,9.18232587 C65.158614,9.24929091 65.2261664,9.31576643 65.2903902,9.38517902 C65.6539007,9.7761021 66.0279846,10.1563538 66.4156769,10.5234867 C66.5405021,10.6414587 66.6592573,10.7672629 66.7691035,10.899235 C66.9344601,11.0974867 67.0895371,11.3040601 67.248628,11.5073049 C67.4079147,11.7103538 67.4873133,11.939151 67.4962224,12.1988853 C67.5122783,12.6633329 67.5396909,13.1272909 67.5626,13.591249 C67.5890336,14.1243259 67.6190895,14.6570112 67.6413133,15.1900881 C67.6600126,15.637207 67.6779287,16.0845217 67.6817469,16.5318364 C67.6954531,18.1413469 67.7031874,19.7507594 67.7127159,21.360172 C67.7133692,21.4978224 67.7104322,21.6355706 67.708572,21.773221 C67.7061245,21.9667734 67.6265301,22.1218503 67.474586,22.2405077 C67.2301245,22.4310252 66.9777329,22.6102839 66.7173133,22.7784797 C66.0638168,23.2003399 65.3671455,23.5338923 64.6359147,23.7964657 C64.417593,23.8748853 64.1972154,23.9483119 63.9785021,24.0258503 C63.9128098,24.049249 63.846628,24.0622699 63.7770196,24.0650112 C63.6681524,24.0690252 63.5733832,24.0356406 63.493593,23.9627035 C63.4490476,23.9222699 63.4074392,23.8785077 63.3668098,23.8340601 C62.9246839,23.3515007 62.4615091,22.8896965 61.9774811,22.4491371 C61.4978587,22.0124937 61.0800126,21.5232769 60.711607,20.9897105 C60.6052853,20.8353189 60.5482084,20.6708434 60.5341105,20.4862979 C60.4879007,19.877151 60.4551035,19.2671231 60.4226979,18.6569972 C60.3477049,17.2466196 60.3526,15.8352629 60.368558,14.4237105 C60.3712014,14.1827734 60.3699287,13.9417385 60.3748238,13.7008014 C60.3770755,13.5931091 60.3269497,13.5225217 60.2404042,13.4687734 C60.1580685,13.4176685 60.0659427,13.3945636 59.9729357,13.3789972 C59.8373413,13.3562839 59.7003762,13.3393469 59.563607,13.3246615 C59.3669217,13.3034168 59.1689636,13.2915706 58.9729636,13.2656266 C58.828558,13.2464378 58.6861105,13.211193 58.5429776,13.1828014 C58.4923622,13.1727175 58.4424322,13.1584238 58.3915231,13.1509832 C58.3469776,13.1446196 58.306642,13.1595986 58.2763902,13.1945497 C58.2652294,13.2075706 58.2561245,13.2224517 58.2472154,13.2370392 C58.0978168,13.4813049 57.9061245,13.6901301 57.7033692,13.8901441 C57.5113832,14.0794867 57.293551,14.2325077 57.0470336,14.3402979 C56.5019147,14.5781021 55.9401524,14.7663678 55.3569497,14.8870811 C55.2817608,14.9027455 55.2042224,14.9105776 55.1271734,14.9148853 C55.0068517,14.9217385 54.9081664,14.8715147 54.8352294,14.7783119 C54.782558,14.7108573 54.7361524,14.6378224 54.6918028,14.5642979 C54.4651594,14.1885497 54.241649,13.8109413 54.0138308,13.4358783 C53.8710895,13.2005217 53.7237469,12.9681021 53.5773832,12.7348014 C53.5546699,12.6984797 53.528628,12.6640182 53.5003343,12.6318084 C53.4913273,12.6217245 53.4685161,12.6161441 53.4552014,12.6197664 C53.4414951,12.6235846 53.4233832,12.6401301 53.4217189,12.6530531 C53.4144741,12.7037664 53.4093832,12.7553608 53.4096769,12.8067594 C53.4150615,13.5037245 53.4199566,14.2008853 53.428572,14.8979483 C53.4345441,15.3799203 53.4442364,15.8617944 53.4561804,16.3435706 C53.4753692,17.1092629 53.4921105,17.875151 53.5205021,18.6403538 C53.5460545,19.3370252 53.5848238,20.0330112 53.6199706,20.7292909 C53.6311315,20.9528014 53.6495371,21.1758224 53.6637329,21.3989413 C53.667551,21.4590531 53.6692154,21.5194587 53.6695091,21.5796685 C53.6697049,21.6119762 53.6730336,21.6452629 53.6459147,21.6723818 C53.6279007,21.6907874 53.5966699,21.6530951 53.5717049,21.5815287 C53.5488937,21.5166196 53.5282364,21.4510252 53.5063063,21.3858224 C53.4010615,21.0764517 53.2966,20.7667874 53.1900825,20.4579063 C53.111565,20.2299902 53.0248238,20.005207 52.9093972,19.7930531 C52.872586,19.7253049 52.829607,19.6605916 52.7832014,19.5990112 C52.7639147,19.5733608 52.7288657,19.5589692 52.7000825,19.5407594 C52.6811874,19.5289133 52.6444741,19.5407594 52.6309636,19.5564238 C52.6017888,19.5906895 52.5858308,19.630242 52.5819147,19.6734168 C52.5678168,19.8275147 52.5478448,19.9817105 52.5445161,20.1362979 C52.5349217,20.5663818 52.530614,20.9968573 52.5280685,21.4271371 C52.5227818,22.3394867 52.5577329,23.2513469 52.575649,24.1634028 C52.5843622,24.6022979 52.5998308,25.0409972 52.6101105,25.4797944 C52.6131455,25.6084378 52.6091315,25.7374727 52.6059986,25.8663119 C52.6054112,25.8793329 52.5893552,25.8973469 52.5763343,25.9028294 C52.5637049,25.9081161 52.5395231,25.9054727 52.5309077,25.8965636 C52.5073133,25.872186 52.4873413,25.8435007 52.4692294,25.8144238 C52.4012853,25.7048713 52.3351035,25.5939483 52.2669636,25.4843958 C52.2170336,25.4039203 52.1689636,25.3219762 52.1132573,25.2456126 C52.0526559,25.1623958 51.9889217,25.080158 51.9173552,25.0064378 C51.8644881,24.9516126 51.799579,24.9064797 51.7349636,24.8649692 C51.6574252,24.815235 51.5751874,24.8425497 51.5440545,24.9236126 C51.5254531,24.9715846 51.5069497,25.0208294 51.4983343,25.0710531 C51.4778727,25.1897105 51.4586839,25.3089552 51.4475231,25.4286895 C51.4299007,25.617249 51.4134531,25.8062979 51.4067958,25.995151 C51.3865301,26.5627874 51.3667538,27.1306196 51.355593,27.6985497 C51.3440406,28.2835147 51.3433552,28.8689692 51.3374811,29.454228 C51.3307259,30.1170252 51.2988098,30.7788434 51.2551455,31.440172 C51.250642,31.5088993 51.2462364,31.5777245 51.2438867,31.6464517 C51.2198028,32.3775846 51.1844601,33.1083259 51.1774112,33.8399483 C51.1744741,34.1239622 51.1613552,34.4077804 51.1510755,34.6915986 C51.1493133,34.7415287 51.1468657,34.7938084 51.1048657,34.8439343 C51.0965441,34.8081021 51.0877329,34.7838224 51.0854811,34.7590531 C51.0453413,34.3135986 51.0056909,33.8678503 50.9665301,33.4222 C50.9155231,32.8393888 50.8660825,32.2564797 50.8139007,31.6735706 C50.7906979,31.4164797 50.7612294,31.1599762 50.7366559,30.9030811 C50.7169776,30.6976825 50.6993552,30.4917944 50.6822224,30.2861021 C50.658628,30.0030671 50.6377748,29.7198364 50.6132014,29.4370951 C50.5868657,29.1370252 50.5578867,28.8373469 50.5296909,28.5374727 C50.5105021,28.3318783 50.4890615,28.1265776 50.4715371,27.9207874 C50.4472573,27.6378503 50.4267958,27.3546196 50.4028098,27.0717804 L50.3242923,26.1976126 L50.3242923,26.1976126 L50.2506699,25.3749413 L50.2506699,25.3749413 C50.2230615,25.0663538 50.194572,24.7579622 50.1671594,24.4494727 C50.1430755,24.175249 50.1202643,23.9008294 50.0962783,23.6266056 C50.0776769,23.4122 50.0584881,23.1978923 50.0392014,22.9838783 L49.9597049,22.1097105 L49.9597049,22.1097105 C49.9352294,21.8354867 49.9127119,21.5610671 49.8887259,21.2869413 C49.8708098,21.081151 49.8521105,20.8755566 49.8335091,20.6698643 C49.788572,20.1728154 49.742558,19.6760601 49.6988937,19.1788154 L49.5761245,17.7386755 L49.5761245,17.7386755 C49.5514531,17.4557385 49.5231594,17.173193 49.4967259,16.8904517 C49.4791035,16.7020881 49.4604042,16.5136266 49.4442503,16.325165 C49.4097888,15.9222 49.3766,15.5191371 49.3434112,15.1159762 C49.3422364,15.0994308 49.3428238,15.0805357 49.3490895,15.0656545 C49.3549636,15.0519483 49.3680825,15.0360881 49.3812014,15.0324657 C49.3945161,15.0287455 49.4173273,15.0337385 49.4261385,15.0436266 C49.471565,15.0951231 49.5151315,15.1484797 49.5571315,15.2028154 C49.6677608,15.3457524 49.7773133,15.4895706 49.8867678,15.6332909 C49.970572,15.7433329 50.0682783,15.840158 50.1710755,15.9318923 C50.1899706,15.9487315 50.2145441,15.9587175 50.236572,15.9718364 C50.2613413,15.9863259 50.3143063,15.9585217 50.3152853,15.9285636 C50.3172434,15.8684517 50.3231175,15.8077524 50.3167538,15.7483259 C50.293649,15.5347035 50.2718168,15.3204937 50.2395091,15.1080462 C50.1154671,14.2917385 49.9661664,13.4795427 49.8128517,12.668228 C49.6453413,11.7808434 49.4722503,10.8945357 49.3018028,10.0078364 C49.2951455,9.97425594 49.290642,9.94018601 49.2858448,9.90621399 C49.2813413,9.87547273 49.2979846,9.84512308 49.3188378,9.84649371 C49.3350895,9.84766853 49.3560406,9.84678741 49.3665161,9.85628392 C49.5003483,9.97778042 49.6321245,10.1014308 49.7650755,10.2237105 C49.8349776,10.2878364 49.9067399,10.3498084 49.994558,10.3887734 C50.025593,10.4027734 50.0581944,10.415207 50.0914811,10.4207874 C50.1262364,10.4267594 50.1592294,10.4146196 50.1838028,10.3866196 C50.2189497,10.3469692 50.2422503,10.3009552 50.248614,10.2486755 C50.2570336,10.1803399 50.2657469,10.1117105 50.2672154,10.043179 C50.2738727,9.69875944 50.2653552,9.35502517 50.2237469,9.01217203 C50.1958448,8.78161259 50.178614,8.54997622 50.1540406,8.31892727 C50.126628,8.06232587 50.096572,7.80592028 50.0672993,7.54941678 C50.0468378,7.37006014 50.0249077,7.1907035 50.0049357,7.01115105 C49.946586,6.48952867 49.8884322,5.9682 49.8311594,5.44647972 C49.778586,4.96754266 49.7286559,4.48840979 49.6752993,4.00966853 C49.6332993,3.63343077 49.5873832,3.25768252 49.5446,2.88164056 C49.5229636,2.69347273 49.5043622,2.50510909 49.4844881,2.31684336 C49.4798867,2.27406014 49.4763622,2.23117902 49.471565,2.1883958 C49.4508098,2.00013007 49.3700406,1.8474028 49.2214252,1.72492727 C48.9158727,1.47312308 48.6150196,1.21583636 48.3139706,0.958941259 C48.2162643,0.875626573 48.1119986,0.798186014 48.0398448,0.688535664 C48.0290755,0.672186014 48.0418028,0.627151049 48.0592294,0.622843357 L48.0837049,0.61461958 L48.0837049,0.61461958 C48.2289916,0.599444755 48.3743762,0.581528671 48.5201524,0.570563636 C48.7690196,0.551864336 49.0180825,0.537081119 49.2672434,0.521612587 C49.550572,0.50399021 49.8339986,0.486759441 50.1175231,0.470605594 C50.5297888,0.447206993 50.9425441,0.427430769 51.3547119,0.401584615 C51.7154811,0.378871329 52.0757608,0.34999021 52.4360406,0.324046154 C52.4705021,0.321402797 52.5046699,0.317388811 52.5390336,0.315528671 C52.9170336,0.293402797 53.2952294,0.273332867 53.6730336,0.249542657 C54.0421245,0.22633986 54.4112154,0.197948252 54.7804042,0.174451748 C54.9778727,0.162018182 55.1757329,0.155165035 55.3734951,0.145374825 C55.4593552,0.141067133 55.5455091,0.138717483 55.6310755,0.1302 C55.6639706,0.126871329 55.6954951,0.109053147 55.727607,0.0978923077 L56.1407538,0.0978923077 Z M14.9564252,3.41015524 C14.9940196,3.41015524 15.0271105,3.47663077 15.0057678,3.51011329 C14.9690545,3.56797343 14.9329287,3.62700839 14.8889706,3.67909231 C14.6890545,3.91591748 14.4862993,4.1500993 14.2850126,4.38574965 C14.167628,4.5232042 14.0519077,4.66193147 13.9335441,4.7985049 C13.8683413,4.87379161 13.8407329,4.9572042 13.8410266,5.05823916 C13.8430825,5.58309231 13.8407329,6.10814126 13.839558,6.63309231 C13.8359357,8.36312028 13.8329986,10.0931483 13.827614,11.8229804 C13.8254601,12.5201413 13.8170406,13.2173021 13.8128308,13.9144629 C13.8117538,14.0949944 13.8147888,14.2759175 13.8189007,14.4566448 C13.8197818,14.4895399 13.8298657,14.5251762 13.8460196,14.5536657 C13.8564951,14.5724629 13.8854741,14.5898895 13.9070126,14.5914559 C13.9400056,14.5933161 13.974565,14.5832322 14.0069706,14.5739315 C14.3563832,14.4744629 14.7148028,14.4328545 15.0751804,14.4019175 C15.3751524,14.3761692 15.6751245,14.3496378 15.9752923,14.3238895 C16.0609566,14.3165469 16.1468168,14.3104769 16.2324811,14.3042112 C16.4042993,14.2915818 16.5758238,14.2792462 16.7475441,14.2668126 C16.7646769,14.2655399 16.7817119,14.2630923 16.7988448,14.2623091 C17.8477678,14.2146308 18.8964951,14.1577497 19.9470825,14.1877077 C20.0159077,14.1895678 20.0844392,14.1950503 20.1530685,14.200435 C20.2150406,14.2053301 20.2715301,14.2297077 20.3174462,14.2690643 C20.3823552,14.3248685 20.4034042,14.4020154 20.3559217,14.4767147 C20.3332084,14.5125469 20.3049147,14.5465189 20.2734881,14.5748126 C20.1967329,14.6436378 20.1174322,14.7102112 20.0374462,14.775414 C19.7373762,15.0202671 19.4357399,15.2630643 19.1364531,15.5088965 C19.0299357,15.5961273 18.9256699,15.6862951 18.8251245,15.7801832 C18.706565,15.8910084 18.6427329,16.0287566 18.6473343,16.1938196 C18.6506629,16.3141413 18.6502713,16.4351483 18.6617259,16.5547846 C18.6972643,16.9231902 18.7514042,17.2893441 18.8216979,17.6524629 C18.9571944,18.3532462 19.0995441,19.0528545 19.2376839,19.7531483 C19.3174741,20.1581692 19.3921734,20.5640713 19.4738238,20.9687986 C19.504565,21.120351 19.5430406,21.2708266 19.5883692,21.4185608 C19.6156839,21.5081413 19.6570965,21.5947846 19.702621,21.6770224 C19.7417818,21.7476098 19.8088448,21.7874559 19.8929427,21.7932322 C19.9881035,21.7996937 20.0820895,21.7947007 20.174607,21.7703231 C20.3689427,21.7196098 20.5432084,21.6301273 20.6999497,21.5043231 C20.789628,21.432365 20.8545371,21.3445469 20.8982993,21.2387147 C20.9649706,21.0780573 20.9992364,20.9094699 21.0134322,20.7376517 C21.0270406,20.5748406 21.037614,20.4111483 21.0351664,20.2478476 C21.0224392,19.3786727 21.0248867,18.5093021 20.9889566,17.6406168 C20.9800476,17.4256238 20.9798517,17.210435 20.9729986,16.9953441 C20.9437259,16.066351 20.9133762,15.1374559 20.8833203,14.2084629 C20.8821455,14.1739035 20.8808727,14.139442 20.8796,14.1051762 C20.8545371,13.4172182 20.8309427,12.7290643 20.8038238,12.0411063 C20.7894322,11.6798476 20.7720056,11.3188825 20.7498797,10.9581133 C20.7363692,10.7349944 20.7190406,10.5114839 20.6599077,10.2941413 C20.639642,10.2195399 20.6187888,10.1446448 20.5907888,10.0726867 C20.5628867,10.0005329 20.5233343,9.93298042 20.4678238,9.87727413 C20.3757958,9.78534406 20.2699636,9.74628112 20.1392643,9.78602937 C20.0642713,9.80854685 19.9931944,9.83811329 19.9280895,9.8805049 C19.8415441,9.9366028 19.7561734,9.99495245 19.6730545,10.0560434 C19.2775301,10.3462252 18.8919916,10.6495259 18.5152643,10.9638895 C18.4558378,11.0136238 18.398565,11.0658056 18.3400196,11.1165189 C18.1533203,11.2791343 18.0630545,11.4851203 18.0642294,11.7315399 C18.0645231,11.8089804 18.0685371,11.8863231 18.0709846,11.9637636 C18.0758797,12.1185469 18.0834182,12.273428 18.0843972,12.4282112 C18.0846909,12.4786308 18.0767608,12.5327706 18.0573762,12.5786867 C18.0215441,12.6635678 17.9235441,12.7216238 17.8239776,12.6509385 C17.7962713,12.6312601 17.7695441,12.608449 17.7480056,12.5823091 C17.7152084,12.5426587 17.6859357,12.4997776 17.6574462,12.4567986 C17.3307469,11.9605329 17.0311664,11.4485049 16.7647748,10.9169944 C16.6988867,10.7858056 16.6460196,10.6502112 16.6053902,10.5091343 C16.4952503,10.1267287 16.5618238,9.77770769 16.801586,9.4607007 C16.9115301,9.31531608 17.0409566,9.18912028 17.1910406,9.08661678 C17.3756839,8.96061678 17.5624811,8.83696643 17.7524112,8.71919021 C18.2497538,8.4106028 18.7629566,8.13021119 19.278607,7.85383357 C19.4605091,7.75632308 19.6432923,7.66037902 19.8275441,7.56737203 C19.9117399,7.52468671 19.9990685,7.48767972 20.0869846,7.45302238 C20.159628,7.42443497 20.2371664,7.41542797 20.3152923,7.4214979 C20.3760895,7.4260993 20.4357119,7.43863077 20.4833902,7.47974965 C20.5417399,7.53007133 20.604593,7.57755385 20.6533483,7.63649091 C21.2419357,8.3454 21.8778098,9.01211329 22.4929287,9.69742797 C22.6251944,9.84477063 22.7522713,9.99642098 22.8647608,10.1596238 C23.1661035,10.596365 23.3248028,11.0802951 23.3399776,11.6103371 C23.3457538,11.8081972 23.3472224,12.0062531 23.3465371,12.2042112 C23.3429147,13.4694 23.3599497,14.7344909 23.3835441,15.9994839 C23.3988168,16.8168685 23.4023413,17.6346448 23.4138937,18.4522252 C23.4212364,18.9685608 23.4338657,19.4848965 23.443558,20.0011343 C23.4466909,20.156407 23.4548168,20.3110923 23.4982853,20.4611762 C23.5149287,20.5189385 23.5307888,20.577386 23.5543832,20.632407 C23.6292783,20.806379 23.7629147,20.9023231 23.9527469,20.9123091 C24.055642,20.9177916 24.1591245,20.9139734 24.2624112,20.9160294 C24.3138098,20.9172042 24.3651105,20.9208266 24.4164112,20.9255259 C24.4570406,20.9291483 24.4841594,20.9938615 24.4571385,21.0261692 C24.4133762,21.0787427 24.3691245,21.1317077 24.3198797,21.1790923 C24.0903972,21.3999594 23.860621,21.620435 23.6282993,21.8381692 C23.3200056,22.1271762 23.0314881,22.4335119 22.7771385,22.7718615 C22.6528028,22.937414 22.5081035,23.0850503 22.3528308,23.2223091 C22.2427888,23.3195259 22.1248168,23.4065608 21.9942154,23.4733301 C21.7712923,23.5872881 21.5387748,23.6214559 21.2937259,23.5500853 C21.1803552,23.5169944 21.0934182,23.453358 21.0306629,23.3554559 C20.9790685,23.2750783 20.9469566,23.1856937 20.9233622,23.0938615 C20.9000615,23.0023231 20.8863552,22.9081413 20.8609007,22.8170923 C20.8424951,22.7515958 20.8154741,22.6878615 20.7854182,22.6267706 C20.7608448,22.5768406 20.7104252,22.5515818 20.6571664,22.5540294 C20.5982294,22.5566727 20.5359636,22.5645049 20.4822154,22.5869245 C20.4033063,22.6199175 20.3291944,22.6650503 20.2556699,22.7095958 C19.9464951,22.8964909 19.6384951,23.0852462 19.3297119,23.2728266 C19.2043972,23.3489944 19.0752643,23.4159594 18.9343832,23.4601133 C18.7674601,23.5121972 18.5998517,23.530407 18.4253902,23.5067147 C18.209614,23.4776378 18.0354462,23.3784629 17.8954462,23.2157497 C17.7813902,23.0835818 17.7017958,22.9318336 17.6556839,22.763442 C17.6058517,22.5809524 17.5573902,22.3980713 17.5101035,22.2148965 C17.3207608,21.4819035 17.1597119,20.742449 17.0016,20.002407 C16.8811804,19.4389804 16.7713343,18.8733021 16.6614881,18.3076238 C16.615572,18.0712881 16.5768028,17.833386 16.5442993,17.5947007 C16.5153203,17.3811762 16.5153203,17.1650084 16.5350965,16.950407 C16.5589846,16.6880294 16.6531664,16.449442 16.8043273,16.2337636 C16.9083972,16.0850503 17.0298937,15.9517077 17.1659776,15.8316797 C17.3919357,15.6322531 17.6172084,15.4323371 17.8422853,15.2322252 C17.8937818,15.1867007 17.9452783,15.1407846 17.9945231,15.0928126 C18.0124392,15.0751902 18.0243832,15.0514 18.0379916,15.0297636 C18.0584531,14.9969664 18.0283972,14.9279455 17.9919776,14.9276517 C17.9407748,14.9269664 17.8880056,14.9239315 17.8384671,14.9339175 C17.4759357,15.0067566 17.1136979,15.0801832 16.7523413,15.1580154 C16.0882713,15.3008545 15.4247888,15.4461413 14.7613063,15.5916238 C14.6270825,15.6211902 14.4933483,15.6537916 14.3604951,15.6887427 C14.1579357,15.7418056 14.0357538,15.874365 13.9917958,16.0780014 C13.973586,16.1619035 13.9532224,16.246393 13.9478378,16.3314699 C13.9340336,16.5460713 13.9204252,16.7611622 13.9203273,16.9759594 C13.9184671,18.628449 13.9201315,20.2809385 13.9201315,21.9336238 L13.9184671,28.5951762 L13.9184671,28.5951762 C13.9182713,28.8967147 13.925614,29.1976657 13.9462713,29.4982252 C13.9746629,29.9140154 14.0730545,30.3125748 14.2415441,30.694393 C14.3790965,31.0058196 14.5672643,31.2805329 14.8168168,31.5117776 C14.9684671,31.6520713 15.1239357,31.7880573 15.2761734,31.9276657 C15.3331524,31.9799455 15.3874881,32.0351622 15.4399636,32.0918476 C15.4754042,32.1302252 15.4960615,32.1776098 15.506635,32.2294979 C15.5201455,32.297442 15.4882294,32.3731203 15.4296839,32.4068965 C15.3534182,32.4512462 15.2712783,32.4698476 15.1832643,32.4709804 C15.0693063,32.4724909 14.9617119,32.4408685 14.8537259,32.4128685 C14.6708448,32.3652881 14.4880615,32.3162392 14.3071385,32.2613161 C14.0009007,32.1687986 13.6892783,32.1130923 13.3698238,32.0940993 C12.750593,32.0574839 12.1311664,32.0487706 11.5117399,32.0762811 C11.2539636,32.0877357 10.9961874,32.1088825 10.7397818,32.1378615 C10.439614,32.1716378 10.1384671,32.1699734 9.83761399,32.1830923 C9.76957203,32.1861273 9.69996364,32.1762392 9.63250909,32.1645888 C9.51737622,32.1449105 9.46411748,32.0456378 9.50014545,31.9311902 C9.52393566,31.8552182 9.56642517,31.791386 9.62291469,31.7371483 C9.66001958,31.7017077 9.70113846,31.6698895 9.74235524,31.6392462 C9.80452308,31.5929385 9.86786573,31.548393 9.9317958,31.5046308 C10.2898238,31.2600713 10.5498517,30.9356238 10.7213762,30.5386308 C10.9031804,30.1182392 11.0336839,29.6828685 11.1108308,29.2313441 C11.1807329,28.8229944 11.2087329,28.4120014 11.2085371,27.9977776 C11.2077538,25.9580853 11.2094182,23.9180993 11.2102993,21.878407 C11.2107888,20.8455399 11.2117678,19.8128685 11.2114741,18.7799035 C11.2114741,18.6769105 11.2057958,18.5736238 11.1976699,18.4710224 C11.1918937,18.4003371 11.1103413,18.3560853 11.041614,18.384379 C10.9941315,18.4038615 10.946649,18.4257916 10.9044531,18.4541832 C10.7474182,18.5601133 10.5918517,18.6678056 10.4373622,18.7772601 C10.2477259,18.9114839 10.0600476,19.048351 9.87119441,19.1837497 C9.6189007,19.3646727 9.35417343,19.524351 9.07476084,19.6597497 C8.97411748,19.7085049 8.87494266,19.7600993 8.77518042,19.8107147 C8.29115245,20.0561552 7.80046713,20.2844629 7.26582378,20.4004769 C7.20923636,20.4126168 7.17800559,20.4526587 7.1687049,20.5077776 C7.16165594,20.5500713 7.15773986,20.5931483 7.15695664,20.6361273 C7.1548028,20.7307986 7.15548811,20.825372 7.15529231,20.9200434 C7.1547049,22.8738755 7.15431329,24.8276098 7.15333427,26.7813441 C7.15304056,27.392449 7.1503972,28.0035538 7.1502014,28.6146587 C7.1502014,28.7176517 7.1549986,28.8208406 7.16283077,28.9237357 C7.17624336,29.1009385 7.24320839,29.2571902 7.35834126,29.3921972 L7.93028531,30.0581273 L7.93028531,30.0581273 C7.98628531,30.1232322 8.04316643,30.1878476 8.09671888,30.2550084 C8.11208951,30.2741972 8.11786573,30.3013161 8.12677483,30.3252042 C8.13676084,30.3517357 8.10092867,30.4006867 8.07194965,30.3982392 C8.02965594,30.3949105 7.98657902,30.3918755 7.94497063,30.3828685 C7.64235524,30.3182531 7.34091469,30.2476657 7.03732028,30.1876517 C6.72530629,30.1260713 6.41133427,30.0741832 6.09814545,30.0186727 C6.06417343,30.0127007 6.02980979,30.0090783 5.99544615,30.0072182 C5.65200559,29.9865608 5.30856503,29.9622811 4.96463497,29.9473021 C4.46592168,29.9259594 3.96691469,29.9118615 3.46800559,29.8937497 C3.39947413,29.8914 3.33035524,29.8877776 3.26231329,29.8790643 C3.22902657,29.8749524 3.19691469,29.8592881 3.1650965,29.8469524 C3.13631329,29.8357916 3.11878881,29.7840993 3.13513846,29.7589385 C3.15383776,29.7306448 3.17097063,29.6999035 3.19495664,29.6767007 C3.2630965,29.6110084 3.33378182,29.5479594 3.40456503,29.4852042 C3.66194965,29.2565049 3.91492867,29.0227147 4.17926434,28.8022392 C4.3641035,28.6477497 4.46494266,28.4632042 4.46308252,28.2219734 C4.4623972,28.1361133 4.47013147,28.0500573 4.47013147,27.9640014 C4.47042517,25.6661413 4.47022937,23.3680853 4.46973986,21.0699315 C4.46973986,20.9496098 4.46719441,20.8290923 4.46366993,20.7086727 C4.46141818,20.6256517 4.43214545,20.5609385 4.34726434,20.526379 C4.25200559,20.4875119 4.15939021,20.4414979 4.06638322,20.3968545 C3.73302657,20.2371762 3.39594965,20.0842531 3.06758601,19.9149804 C2.48467692,19.6141273 1.93564196,19.2608965 1.43536224,18.8343371 C1.0601035,18.5141972 0.729096503,18.1545049 0.449488112,17.7475259 C0.252313287,17.4605748 0.100858741,17.1550224 0.0401594406,16.8090364 C0.0311524476,16.7585189 0.0132363636,16.7097636 1.95804187e-05,16.6622811 C0.0183272727,16.6015818 0.0336,16.5433301 0.0533762238,16.4867427 C0.113194406,16.3172741 0.220593007,16.1877497 0.381446154,16.1053161 C0.427362238,16.0817217 0.474061538,16.0594979 0.521544056,16.0395259 C0.967292308,15.8504769 1.42987972,15.7205608 1.90920839,15.6546727 C2.06213147,15.6335259 2.21711049,15.6161972 2.37208951,15.6357776 C2.38530629,15.6373441 2.40253706,15.6518336 2.40674685,15.6642671 C2.41095664,15.6766028 2.40576783,15.697358 2.39695664,15.7079315 C2.38060699,15.7270224 2.35965594,15.7431762 2.33860699,15.7576657 L2.1663972,15.8715259 L2.1663972,15.8715259 C1.82951608,16.0965049 1.50790769,16.3414559 1.20744615,16.6132322 C1.15663497,16.6592462 1.10631329,16.7070224 1.06294266,16.7599874 C1.0134042,16.8206867 0.982760839,16.8919594 0.983348252,16.9735119 C0.983837762,17.0265748 0.993138462,17.0768965 1.02701259,17.1187986 C1.05941818,17.1585469 1.09241119,17.1989804 1.1302993,17.2336378 C1.66494266,17.7207007 2.21691469,18.1862252 2.81646713,18.5932042 C3.21943217,18.866449 3.6596,19.0561832 4.12571189,19.1891343 C4.19953007,19.2100853 4.27736224,19.2175259 4.35372587,19.2298615 C4.37624336,19.2335818 4.42803357,19.1930503 4.43057902,19.1701413 C4.43625734,19.1190364 4.44311049,19.0675399 4.4436979,19.0162392 C4.44614545,18.7925329 4.44692867,18.5687287 4.44741818,18.3449245 L4.46190769,10.8052881 L4.46190769,10.8052881 C4.46455105,9.60030909 4.46925035,8.39542797 4.47120839,7.19044895 C4.4715021,7.01863077 4.46641119,6.84622517 4.45573986,6.6746028 C4.43919441,6.41281259 4.32425734,6.19644895 4.13050909,6.02198741 C4.00901259,5.91263077 3.88213147,5.80905035 3.7621035,5.69802937 C3.6547049,5.59895245 3.55278881,5.4939035 3.44930629,5.39051888 C3.42453706,5.36594545 3.41004755,5.3355958 3.40583776,5.29956783 C3.40231329,5.26804336 3.42659301,5.22565175 3.45292867,5.21733007 C3.52831329,5.19314825 3.60575385,5.19628112 3.6829986,5.19784755 C3.82926434,5.20098042 3.97553007,5.20734406 4.12189371,5.20753986 C5.24062098,5.20910629 6.35954406,5.2094979 7.47846713,5.21067273 C7.59017343,5.21067273 7.70217343,5.21341399 7.81387972,5.21781958 C7.83835524,5.2185049 7.86253706,5.23133007 7.88632727,5.23945594 C7.90443916,5.24572168 7.92215944,5.28517622 7.9203972,5.30407133 C7.91618741,5.34900839 7.89611748,5.38611329 7.86831329,5.4194979 C7.74671888,5.56468671 7.62473287,5.70938601 7.50274685,5.85418322 L7.30224336,6.09042098 L7.30224336,6.09042098 C7.20571189,6.20731608 7.15597762,6.34173566 7.15548811,6.49416923 C7.1548028,6.64043497 7.15294266,6.7867986 7.15294266,6.93306434 L7.15274685,14.1627427 C7.15274685,15.660449 7.15264895,17.1578615 7.15333427,18.6554699 C7.15353007,18.7498476 7.16028531,18.8441273 7.16664895,18.9383091 C7.16948811,18.9803091 7.21961399,19.0125189 7.26161399,19.0019455 C7.30302657,18.9915678 7.34463497,18.9801133 7.38457902,18.9651343 C7.64343217,18.8690923 7.8876,18.7427986 8.12599161,18.6046587 C8.4617958,18.4099315 8.77801958,18.1865189 9.08102657,17.9451902 C9.35025734,17.7304909 9.61518042,17.5107986 9.8802993,17.2912042 C10.2050406,17.0220713 10.5279217,16.7508825 10.8511944,16.4800853 C10.9105231,16.430449 10.969558,16.3800294 11.0261455,16.3274559 C11.0716699,16.2850643 11.0996699,16.2327846 11.0997678,16.168365 C11.0999636,16.099442 11.1017259,16.0306168 11.1017259,15.9617916 L11.1013343,5.19451888 L11.1013343,5.19451888 C11.1011385,4.9015958 11.1327608,4.91588951 10.9020056,4.66614126 C10.7094322,4.45741399 10.5202853,4.24545594 10.3304531,4.03428112 C10.2615301,3.95742797 10.1929007,3.88037902 10.1554042,3.78100839 C10.1302434,3.71443497 10.171558,3.63023916 10.2411664,3.6228965 C10.3093063,3.61604336 10.3782294,3.61369371 10.4468587,3.6132042 C10.8083133,3.61056084 11.1698657,3.61173566 11.5312224,3.60605734 C11.8065231,3.60155385 12.0817259,3.58912028 12.3570266,3.57962378 C12.4860615,3.57531608 12.6149986,3.5665049 12.7440336,3.56542797 C13.2352084,3.56112028 13.7238378,3.52088252 14.2116839,3.46791748 C14.3654881,3.45127413 14.5189986,3.43051888 14.6731944,3.41700839 C14.7670825,3.40907832 14.8619497,3.41015524 14.9564252,3.41015524 Z M43.1518769,10.5112 C43.4611497,10.5280392 43.7704224,10.5455636 44.0794014,10.5644587 C44.3972895,10.5839413 44.7148839,10.6064587 45.032772,10.625158 C45.427807,10.6485566 45.8230378,10.6696056 46.2181706,10.6907524 C46.3045203,10.6954517 46.3895972,10.7038713 46.4722266,10.731186 C46.5507441,10.7569343 46.6010657,10.8367245 46.5752196,10.9127944 C46.5366462,11.0266545 46.4952336,11.1400252 46.447751,11.2503608 C45.9922126,12.3088783 45.5366741,13.3674937 45.077807,14.4244448 C44.5229958,15.7025566 43.9598629,16.9769483 43.3752895,18.2416476 C42.5699469,19.9840112 41.6904923,21.6873119 40.7308559,23.3499832 C39.7460587,25.0560252 38.7752615,26.770193 37.797807,28.4806406 C37.7551217,28.5550462 37.7115552,28.6297455 37.6620168,28.6998434 C37.622758,28.7555497 37.5764503,28.8074378 37.5281846,28.8557035 C37.4915692,28.8925147 37.444772,28.9174797 37.3911217,28.922179 C37.3314014,28.9276615 37.2708979,28.9357874 37.2114713,28.9326545 C37.0654993,28.9244308 36.9197231,28.9113119 36.7740448,28.898193 C36.6454993,28.8867385 36.5173455,28.8706825 36.3889958,28.8594238 C35.8576811,28.8130182 35.3263664,28.7670042 34.7948559,28.7220671 C34.5120168,28.6979832 34.2286881,28.678207 33.945849,28.653242 C33.671821,28.6290601 33.3978909,28.6006685 33.1238629,28.5741371 C32.9183664,28.5543608 32.7132615,28.5310601 32.5072755,28.5153958 C32.017765,28.4782909 31.5343245,28.3973259 31.0516671,28.312249 C30.636758,28.239214 30.2219469,28.1646126 29.8067441,28.0938294 C28.657765,27.8976336 27.5886741,27.4837035 26.5785203,26.9098014 C26.4964783,26.8631021 26.4168839,26.8113119 26.3407161,26.7557035 C26.3001846,26.7258434 26.2656252,26.685214 26.2348839,26.6443888 C26.1911217,26.5863329 26.1786881,26.5174098 26.2004224,26.448193 C26.2236252,26.3746685 26.2501566,26.301242 26.283835,26.2320252 C26.509793,25.7680671 26.7376112,25.3049902 26.9656252,24.8421091 C27.0502126,24.670193 27.1649538,24.5207944 27.3091636,24.3944028 C27.5744783,24.1618853 27.8433175,23.9329902 28.1042266,23.6956755 C28.280842,23.5351161 28.4825203,23.468249 28.7181706,23.4798993 C28.9674294,23.4918434 29.2170797,23.4958573 29.4665343,23.5023189 C29.5352615,23.5043748 29.6041846,23.5027105 29.6729119,23.5027105 C29.7158909,23.5027105 29.7588699,23.5008503 29.801751,23.5030042 L30.7814573,23.553228 L30.7814573,23.553228 C30.8423524,23.5564587 30.9001147,23.5690881 30.953765,23.6000252 C30.9889119,23.620193 30.9966462,23.6844168 30.961793,23.7090881 C30.9198909,23.7385566 30.8779888,23.7693958 30.8320727,23.7914238 C30.6769958,23.8658294 30.5201566,23.9367105 30.3641007,24.0087664 C30.0049958,24.1745147 29.6460867,24.3403608 29.2870797,24.5063049 C29.2481147,24.5244168 29.2085622,24.5416476 29.1705762,24.5613259 C29.0686601,24.6139972 28.9856392,24.6881091 28.9279748,24.7868923 C28.8846042,24.8610042 28.8426042,24.9365846 28.808828,25.0152 C28.6762685,25.3233958 28.5469399,25.6329622 28.4172196,25.9421371 C28.4006741,25.9817874 28.3865762,26.0225147 28.3744364,26.0638294 C28.3520168,26.1393119 28.3479049,26.2170462 28.3635692,26.2938014 C28.381779,26.3825007 28.4294573,26.4540671 28.5159049,26.4885287 C28.5712196,26.5106545 28.6302545,26.5285706 28.6892895,26.5354238 C28.885779,26.5577455 29.0829538,26.5746825 29.279835,26.593186 C29.5625762,26.6199133 29.8451217,26.646249 30.127765,26.6728783 L30.8471497,26.7408224 L30.8471497,26.7408224 C31.1811916,26.7727385 31.5150378,26.805242 31.8490797,26.8370601 C32.0973594,26.8607524 32.345835,26.8823888 32.5941147,26.9068643 L33.3127161,26.9824448 L33.3127161,26.9824448 C33.5522825,27.0065287 33.7922406,27.0286545 34.0320028,27.051172 L35.059779,27.1471161 L35.059779,27.1471161 C35.256758,27.1651301 35.4537371,27.1850042 35.6512056,27.1974378 C35.7450937,27.2034098 35.8405483,27.1995916 35.9342406,27.1900951 C36.0410517,27.179228 36.1299469,27.127242 36.1960308,27.0412839 C36.2273594,27.0003608 36.2575133,26.9580671 36.2844364,26.9143049 C36.3159608,26.8629063 36.343765,26.8093538 36.3725483,26.7565846 C37.294786,25.0648364 38.2171217,23.373186 39.1390657,21.681242 C39.2172895,21.5378154 39.2925762,21.3927245 39.3692336,21.2484168 C39.3894014,21.2103329 39.4076112,21.171172 39.4293455,21.1342629 C39.5713035,20.8918573 39.6000867,20.6343748 39.5414434,20.3619133 C39.4508839,19.9417175 39.366786,19.5199552 39.2764224,19.0997594 C39.0811077,18.1919133 38.8828559,17.2844587 38.686758,16.3768084 C38.5035832,15.5278993 38.3207021,14.6788923 38.1391916,13.8294937 C38.0761427,13.5352 38.0141706,13.2407105 37.9584643,12.9450462 C37.9154853,12.7168364 37.8196392,12.5225007 37.642828,12.3687944 C37.5715552,12.3068224 37.5066462,12.2374098 37.4409538,12.1692699 C37.4236252,12.1515497 37.4132476,12.1267804 37.4015972,12.104165 C37.3846601,12.0715636 37.4111916,12.0071441 37.4471217,11.9955916 C37.4794294,11.985214 37.5124224,11.973172 37.545807,11.9705287 C37.725849,11.9556476 37.9060867,11.9423329 38.0864224,11.9306825 C38.3182545,11.9158014 38.5500867,11.9025846 38.7820168,11.8894657 C39.1944783,11.866165 39.606842,11.8428643 40.0192056,11.8213259 C40.1050657,11.8169203 40.1912196,11.8183888 40.2771776,11.8187804 C40.3213315,11.8188783 40.3554014,11.8409063 40.3589259,11.8671441 C40.3639189,11.9054238 40.3435552,11.9327385 40.3174154,11.9550601 C40.2190238,12.0385706 40.1256252,12.1296196 40.0194993,12.2019692 C39.8506182,12.3172 39.7841427,12.4680671 39.8164503,12.6671021 C39.8234993,12.7096895 39.8239888,12.7529622 39.8313315,12.7954517 C39.9043664,13.2190741 39.9780867,13.6426965 40.0519049,14.0663189 C40.1286601,14.5068783 40.2059049,14.9473399 40.2830517,15.3878014 L40.5140028,16.7093818 L40.5140028,16.7093818 C40.5917371,17.1496476 40.6702545,17.5898154 40.7488699,18.0302769 C40.7669818,18.1318014 40.7837231,18.2338154 40.8069259,18.334165 C40.8224923,18.4009343 40.8462825,18.4659413 40.870758,18.5300671 C40.891807,18.5854797 40.9820727,18.5983049 41.0243664,18.5522909 C41.0531497,18.5210601 41.0843804,18.4889483 41.1028839,18.4515497 C41.1561427,18.3436615 41.2066601,18.2343049 41.2530657,18.123186 C41.7571636,16.9170322 42.2449119,15.7045147 42.7128839,14.4838713 C42.952842,13.8574937 43.2003385,13.2339552 43.4071077,12.5955357 C43.4944364,12.3254238 43.5783385,12.0544308 43.6621427,11.7834378 C43.6874014,11.7013958 43.7096252,11.6178853 43.7281287,11.534179 C43.7689538,11.3499273 43.7222545,11.1945566 43.5724643,11.073158 C43.4386322,10.9649762 43.3061706,10.8550322 43.174786,10.7438154 C43.1225063,10.6995636 43.0733594,10.6513958 43.0254853,10.602249 C43.0162825,10.5930462 43.0150098,10.5694517 43.0194154,10.555158 C43.0235273,10.5410601 43.0377231,10.5228503 43.0505483,10.5200112 C43.0834434,10.5127664 43.1181986,10.509242 43.1518769,10.5112 Z M78.0221273,4.76075385 C78.036421,4.76378881 78.0507147,4.77837622 78.0595259,4.7914951 C78.0687287,4.8052014 78.0740154,4.82321538 78.0756797,4.83976084 C78.080379,4.88244615 78.0833161,4.92552308 78.0848825,4.96830629 C78.0999594,5.39848811 78.1152322,5.82847413 78.1296238,6.25846014 C78.1529245,6.95532727 78.176421,7.6520965 78.1978615,8.34896364 C78.202365,8.49562098 78.2152881,8.64090769 78.2409385,8.78511748 C78.245442,8.81027832 78.2502392,8.83641818 78.2602252,8.85971888 C78.2848965,8.91728531 78.3246448,8.96212448 78.3857357,8.98141119 C78.4849105,9.01293566 78.587414,9.02664196 78.6908965,9.0287958 C78.8630084,9.03232028 79.0352182,9.03447413 79.2073301,9.03662797 C79.4138056,9.03917343 79.6204769,9.04044615 79.8270503,9.04299161 C79.9220154,9.04426434 80.016393,9.05043217 80.1066587,9.08411049 C80.1761692,9.11005455 80.2180713,9.16174685 80.2408825,9.23037622 C80.246365,9.24662797 80.2498895,9.26376084 80.2517497,9.2807958 C80.2702531,9.46093566 80.2746587,9.64146713 80.2600713,9.8220965 C80.2515538,9.92724336 80.1916378,9.99773287 80.0860014,10.0171175 C79.9761552,10.0370895 79.8651343,10.0535371 79.7538196,10.0620545 C79.436421,10.0860406 79.118435,10.103565 78.8007427,10.127649 C78.7069524,10.1346 78.6129664,10.1492853 78.5206448,10.1690615 C78.430379,10.1883483 78.3717357,10.2459147 78.3438336,10.3378448 C78.3111343,10.4467119 78.3010503,10.5568517 78.3028126,10.6694392 C78.3069245,10.9189916 78.3098615,11.1685441 78.3136797,11.4181944 C78.3278755,12.3304462 78.3422671,13.2426 78.3567566,14.1548517 C78.382407,15.7469357 78.4093301,17.3390196 78.4333161,18.9310056 C78.4452601,19.7227399 78.4499594,20.5147678 78.4611203,21.3065021 C78.4770783,22.459593 78.4943091,23.6129776 78.5146727,24.7660685 C78.5184909,24.9809636 78.5386587,25.195565 78.5518755,25.4102643 C78.5592182,25.5299007 78.616393,25.623593 78.7092042,25.694572 C78.7637357,25.7362783 78.8222811,25.773579 78.8818056,25.807649 C79.0237636,25.8889077 79.1667007,25.9680126 79.3103231,26.0460406 C79.6882252,26.2513413 80.0663231,26.4561524 80.4453021,26.659593 C80.5207846,26.7000266 80.5987147,26.7374252 80.678407,26.7687538 C80.8028406,26.8178028 80.915428,26.7847119 81.0139175,26.7008098 C81.0528825,26.6675231 81.087442,26.6281664 81.1202392,26.5885161 C81.2959734,26.376558 81.4717077,26.1645021 81.6443091,25.9499986 C81.6868965,25.8970336 81.7218476,25.836628 81.7520993,25.775635 C81.782351,25.7144462 81.7468126,25.6314252 81.6867007,25.5981385 C81.6025049,25.5514392 81.5094979,25.5311734 81.4164909,25.5164881 C80.9493021,25.4420825 80.4817217,25.3712014 80.0145329,25.2972853 C79.8872601,25.2773133 79.7591063,25.2604741 79.6387846,25.2096629 C79.5902252,25.1892014 79.5478336,25.1628657 79.5177776,25.1177329 C79.4958476,25.0849357 79.5040713,25.0223762 79.5389245,25.0037748 C79.5685888,24.987621 79.6002112,24.9685301 79.6328126,24.9648098 C79.7008545,24.9573692 79.7700713,24.9553133 79.8387007,24.9578587 C80.2169944,24.9723483 80.5954839,24.9885021 80.9735818,25.0054392 C81.0940014,25.0109217 81.2142252,25.0207119 81.3766448,25.0311874 C81.4892322,25.0342224 81.6441133,25.0361804 81.7988965,25.0430336 C82.194421,25.0608517 82.5898476,25.080628 82.9851762,25.1003063 C83.0193441,25.1018727 83.0535119,25.1074531 83.087386,25.1134252 C83.1361413,25.1217469 83.1815678,25.1614951 83.1794876,25.1883203 C83.1765748,25.2266 83.154351,25.252642 83.126351,25.271635 C83.0626168,25.3152993 82.9990783,25.3609217 82.930351,25.3954811 C82.6927427,25.5148238 82.5141692,25.6932014 82.3700573,25.9152434 C82.0987706,26.3340685 81.8195538,26.7478028 81.5430783,27.1632993 C81.4765049,27.2638448 81.4103231,27.3644881 81.3395399,27.4619007 C81.2943091,27.5244601 81.2438895,27.5836909 81.1909245,27.6398867 C81.0916517,27.7452294 80.9684909,27.7624601 80.8346587,27.722614 C80.7937357,27.7104741 80.7540853,27.6926559 80.7155119,27.6738587 C80.5917636,27.6137469 80.4669385,27.555593 80.3457357,27.4907818 C79.1317497,26.8422783 77.9185469,26.1926 76.7051483,25.5434112 C76.5761133,25.474586 76.4464909,25.4069357 76.317358,25.3382084 C76.2717357,25.3141245 76.2271902,25.2879846 76.1817636,25.2637049 C76.0236517,25.1793133 75.944351,25.0438168 75.9301552,24.8687678 C75.9238895,24.7917189 75.924379,24.7139846 75.9234,24.636642 L75.9056797,22.9841524 L75.9056797,22.9841524 C75.888351,21.6329077 75.8711203,20.281565 75.8521273,18.930614 C75.8365608,17.8289217 75.8188406,16.7274252 75.8011203,15.6257329 C75.7849664,14.6275231 75.7678336,13.6293133 75.7499175,12.6310056 C75.7375818,11.9340406 75.7228965,11.2370755 75.7099734,10.5399147 C75.7081133,10.4363343 75.703414,10.3340266 75.6640573,10.235635 C75.632435,10.156628 75.5758476,10.1067958 75.4950783,10.0919147 C75.4192042,10.0782084 75.341372,10.0717469 75.2643231,10.0703762 C75.023386,10.0658727 74.782449,10.0660685 74.5415119,10.062642 C74.4554559,10.061565 74.3693021,10.0587259 74.2837357,10.0510895 C74.2416378,10.0470755 74.2006168,10.0309217 74.1597916,10.0184881 C74.1303231,10.0093832 74.1094699,9.95788671 74.1257217,9.93282378 C74.1581273,9.8825021 74.1890643,9.83061399 74.227442,9.78518741 C74.3500154,9.64087972 74.4767986,9.50029231 74.5994699,9.35608252 C75.0958336,8.77248811 75.5925888,8.18938322 76.0858196,7.60343916 C76.3689524,7.26743916 76.6258476,6.91166294 76.8657077,6.54345315 C77.2038615,6.02418042 77.5344769,5.5005021 77.8455119,4.96429231 C77.8839874,4.89801259 77.9301972,4.83584476 77.9760154,4.77377483 C77.9836517,4.7632014 78.0077357,4.75791469 78.0221273,4.76075385 Z M72.1943678,3.36053846 C72.2219762,3.41702797 72.2183538,3.47772727 72.2193329,3.53734965 C72.2260881,3.92455245 72.2326476,4.31165734 72.2379343,4.69905594 C72.2442979,5.17221678 72.2488993,5.64547552 72.2550671,6.11873427 C72.256242,6.20479021 72.2557524,6.29153147 72.2665217,6.37651049 C72.2768993,6.46129371 72.2938364,6.54656643 72.320172,6.62743357 C72.3422979,6.69508392 72.3965357,6.74197902 72.4674168,6.76097203 C72.5845077,6.7922028 72.7040462,6.80551748 72.8250531,6.80737762 C73.0486615,6.81051049 73.2725636,6.81383916 73.496172,6.81765734 C73.5736126,6.81912587 73.6498783,6.82402098 73.7255566,6.84663636 C73.8458783,6.88276224 73.9194028,6.95628671 73.9296825,7.08297203 C73.9407455,7.22013287 73.9463259,7.35768531 73.9578783,7.55652448 C73.9578783,7.5811958 73.9586615,7.66734965 73.9574867,7.75320979 C73.9568014,7.79618881 73.9551371,7.83946154 73.9490671,7.88175524 C73.9368294,7.96644056 73.8656545,8.04397902 73.7809692,8.05592308 C73.6789552,8.07041259 73.5760601,8.08167133 73.4730671,8.08558741 C73.258172,8.0941049 73.0428853,8.09674825 72.8278923,8.10213287 C72.759165,8.1038951 72.6900462,8.1036014 72.6216126,8.11074825 C72.5799063,8.11525175 72.5371231,8.12768531 72.4986476,8.14481818 C72.4236545,8.1781049 72.3727455,8.23704196 72.3585497,8.3183986 C72.3454308,8.39446853 72.3382839,8.4721049 72.3354448,8.54925175 C72.324186,8.85872028 72.3154727,9.16848252 72.306172,9.47814685 L72.2204098,12.3163287 L72.2204098,12.3163287 C72.2193329,12.3507902 72.218158,12.3850559 72.2172769,12.4197133 C72.1936825,13.339993 72.1720462,14.2605664 72.1462979,15.1808462 C72.1214308,16.0754755 72.0926476,16.9698112 72.0657245,17.8644406 C72.0628853,17.9589161 72.0590671,18.0535874 72.0570112,18.1482587 C72.0343958,19.1634056 72.0114867,20.1785524 71.9892629,21.1936993 C71.9676266,22.1745804 71.9463818,23.1552657 71.9254308,24.136049 C71.9235706,24.2305245 71.9216126,24.3252937 71.9254308,24.4198671 C71.9300322,24.5357832 71.9728154,24.6371119 72.0570112,24.7195455 L72.1843818,24.8475035 L72.1843818,24.8475035 C72.5368294,25.2011259 72.8894727,25.5542587 73.2417245,25.907979 C73.290186,25.9565385 73.3397245,26.005 73.3828993,26.0582587 C73.409235,26.0906643 73.4286196,26.1309021 73.4440881,26.1703566 C73.4745357,26.2480909 73.4283259,26.3317972 73.3467734,26.3484406 C73.3136825,26.3551958 73.2785357,26.3587203 73.2450531,26.3553916 C73.1848434,26.3492238 73.1279622,26.328958 73.0768573,26.2948881 C72.9837524,26.2329161 72.8887874,26.1734895 72.7968573,26.110049 C71.9054587,25.4931678 71.0145497,24.8757972 70.1236406,24.2584266 C70.0670531,24.2191678 70.0118364,24.1778531 69.9559343,24.1378112 C69.8595007,24.0684965 69.8076126,23.9711818 69.7864657,23.858007 C69.7739343,23.7904545 69.7690392,23.7212378 69.7662,23.6527063 C69.7622839,23.5581329 69.7633608,23.4634615 69.7630671,23.3687902 C69.7519063,18.5583706 69.7408434,13.7478531 69.7297804,8.93733566 C69.7296825,8.84276224 69.7299762,8.74809091 69.7284098,8.65341958 C69.7274308,8.60192308 69.7265497,8.54983916 69.7191091,8.49893007 C69.6939483,8.32867832 69.6047594,8.22137762 69.4120881,8.2111958 C69.0942,8.19425874 68.7764098,8.17732168 68.4583259,8.1641049 C68.2348154,8.155 68.0108154,8.15548951 67.7875007,8.14511189 C67.676186,8.13982517 67.5653608,8.12151748 67.4548294,8.10555944 C67.4004937,8.09772727 67.3815986,8.02948951 67.419193,7.98641259 C67.436228,7.96683217 67.4523818,7.94646853 67.471179,7.92933566 C67.5218923,7.88273427 67.5736825,7.83730769 67.6252769,7.79188112 C68.2257105,7.26252448 68.8159622,6.72200699 69.3921161,6.16651049 C69.652242,5.91558741 69.909235,5.66143357 70.1697524,5.41060839 C70.3431371,5.24378322 70.5190671,5.07881818 70.6962699,4.91561538 C71.1405497,4.50618881 71.5440042,4.06034266 71.9049692,3.57592308 C71.9563678,3.507 72.0101161,3.43964336 72.0658224,3.37404895 C72.0813888,3.35593706 72.107235,3.34575524 72.129165,3.33312587 C72.1461021,3.32343357 72.1857524,3.34281818 72.1943678,3.36053846 Z M91.7586825,7.55687692 C91.7812979,7.67494685 91.8047944,7.79321259 91.8185986,7.91255524 C91.842193,8.11766014 91.8600112,8.32345035 91.8776336,8.52904476 C91.8857594,8.62410769 91.9032839,8.71642937 91.9340252,8.8064993 C91.9580112,8.8765972 92.0488643,8.92143636 92.1229762,8.90400979 C92.1999273,8.8858979 92.2665986,8.8484014 92.332193,8.8063035 C92.5854657,8.64359021 92.8388364,8.48097483 93.0932839,8.32012168 C93.1658294,8.27420559 93.2409203,8.23191189 93.3172839,8.19255524 C93.3548783,8.17297483 93.3966825,8.15946434 93.4382909,8.15094685 C93.5203329,8.13420559 93.5905287,8.15848531 93.6471161,8.22192587 C93.7110462,8.29378601 93.7509902,8.37964615 93.7935776,8.46403776 C94.0064168,8.88638741 94.2192559,9.30893287 94.4318993,9.73147832 C94.7218853,10.3075343 95.0115776,10.8839818 95.3019552,11.4599399 C95.3638294,11.5826112 95.4279552,11.7044014 95.4585007,11.8402895 C95.4614378,11.8532126 95.4819972,11.8622196 95.4945287,11.8729888 L95.4945287,12.2862336 C95.2500671,12.6079399 94.9764308,12.9044853 94.7014238,13.1996601 C94.3257734,13.6031147 93.922221,13.9776881 93.5005566,14.332779 C93.4413259,14.3827091 93.3809203,14.4312685 93.3172839,14.4751287 C93.2903608,14.4935343 93.2544308,14.5005832 93.2214378,14.5075343 C93.1826685,14.5156601 93.1334238,14.4813944 93.1199133,14.4454643 C93.0816336,14.3414923 93.099158,14.2404573 93.1410601,14.1442196 C93.1718993,14.0736322 93.2119413,14.0064713 93.2530601,13.9412685 C93.3309902,13.8175203 93.4116615,13.6954364 93.4928224,13.573842 C93.6849063,13.2864014 93.6936196,13.1534503 93.5907245,12.846821 C93.3441091,12.1131427 93.1018014,11.3782895 92.8571441,10.6440238 C92.8435357,10.6033944 92.8300252,10.560807 92.8064308,10.5260517 C92.7779413,10.4844434 92.7446545,10.4401916 92.7027524,10.4142476 C92.502151,10.2908909 92.2760951,10.3143874 92.127186,10.505786 C92.0673678,10.5824434 92.027228,10.6660517 92.0231161,10.7645413 C92.0186126,10.8763455 92.008235,10.9880517 92.0099972,11.0996601 C92.0217455,11.8826811 92.0365287,12.6655063 92.0497455,13.4484294 L92.1013399,16.4941636 L92.1013399,16.4941636 C92.1187664,17.5266392 92.1356056,18.5590168 92.1539133,19.5914923 C92.1668364,20.3315343 92.1796615,21.0714783 92.1958154,21.8113245 C92.2059972,22.2760657 92.2374238,22.7395343 92.3006685,23.2003594 C92.3274937,23.3960657 92.363228,23.5913804 92.4066965,23.7839538 C92.5228084,24.298821 92.7945846,24.7166671 93.2102769,25.0407231 C93.3941371,25.1841497 93.5930741,25.3031986 93.8026825,25.4053105 C93.8639692,25.4352685 93.922221,25.4715902 93.9814517,25.5058559 C93.9867385,25.5089888 93.9889902,25.5191706 93.9904587,25.5265133 C93.9947664,25.5489329 93.9846825,25.5610727 93.9617734,25.5604149 C93.7469762,25.5546112 93.5319832,25.5555902 93.3179692,25.5411007 C93.0347385,25.5217161 92.7526825,25.4863734 92.4697455,25.4644434 C92.0749063,25.4338 91.6837874,25.3762336 91.2926685,25.315828 C90.3228503,25.1661357 89.3699692,24.9386112 88.4225706,24.686807 C88.3734238,24.6735902 88.3264308,24.6521497 88.2791441,24.6330587 C88.272193,24.6303175 88.2630881,24.6186671 88.2643608,24.6131846 C88.2677874,24.5984014 88.2722909,24.5782336 88.2834517,24.5712825 C88.3193818,24.548765 88.3577594,24.5291846 88.3967245,24.5120517 C88.8893678,24.2964713 89.2479832,23.9386392 89.5042909,23.4717441 C89.6504587,23.2055483 89.7473818,22.9214364 89.8103329,22.6255762 C89.8807245,22.2959399 89.906179,21.9621916 89.8988364,21.6254084 C89.8734797,20.4638 89.8493958,19.3023874 89.8267804,18.1409748 L89.8004448,16.4372825 L89.8004448,16.4372825 C89.7737175,15.0521636 89.7447385,13.6671427 89.7173259,12.2820238 C89.7115497,11.9981077 89.7094937,11.7140937 89.7062629,11.4301776 C89.7050881,11.3264993 89.692165,11.2251706 89.6663189,11.1241357 C89.632249,10.9904993 89.5458993,10.919814 89.4163748,10.895828 C89.3148503,10.8770308 89.2118573,10.865772 89.1105287,10.8463874 C89.069214,10.8385552 89.029172,10.8211287 88.9905986,10.8033105 C88.9423329,10.7808909 88.9204028,10.7154923 88.9431161,10.6713385 C88.9547664,10.6485273 88.966221,10.6252266 88.9813958,10.6046671 C89.0066545,10.5700098 89.034165,10.5367231 89.0617734,10.5037301 C89.697158,9.74528252 90.3325427,8.98673706 90.9683189,8.22838741 C91.1175217,8.0503035 91.2674098,7.8729049 91.4185706,7.69638741 C91.480249,7.62462517 91.5454517,7.5559958 91.6294517,7.50831748 C91.6688084,7.4859958 91.750165,7.51252727 91.7586825,7.55687692 Z M95.2131776,24.1809566 C95.2131776,24.1809566 95.2358909,24.3663832 95.2358909,24.4054462 C95.2131776,24.3012783 95.1612895,24.2298098 95.0895273,24.2298098 L94.8650378,24.2298098 L94.8650378,25.1338378 C94.8650378,25.1762294 94.9172196,25.2380056 95.0083664,25.2380056 C94.8621007,25.2380056 94.6864643,25.2347748 94.5955133,25.2347748 C94.6831357,25.2347748 94.7352196,25.182593 94.7352196,25.1402993 L94.7352196,24.2330406 L94.4945762,24.2330406 C94.4457231,24.2330406 94.380814,24.3045091 94.3644643,24.408579 C94.3674993,24.3045091 94.3741566,24.2361734 94.3839469,24.1809566 L95.2131776,24.1809566 Z M95.5905706,24.1875455 L95.9970601,25.0264685 L96.4036476,24.1875455 L96.6671021,24.1875455 C96.6671021,24.1875455 96.5237734,24.194007 96.5237734,24.2687063 L96.5237734,25.1534476 C96.5237734,25.2151259 96.6571161,25.2346084 96.6571161,25.2346084 L96.2604168,25.2346084 C96.2604168,25.2346084 96.3937594,25.2183566 96.3937594,25.1337692 C96.3937594,25.0493776 96.3872,24.4182028 96.3872,24.3369441 C96.3318853,24.4443427 95.9515357,25.2216853 95.9515357,25.2216853 L95.5156755,24.3206923 L95.5156755,25.160007 C95.5156755,25.2184545 95.6553818,25.2346084 95.6553818,25.2346084 L95.3237874,25.2346084 C95.3237874,25.2346084 95.4635916,25.2183566 95.4635916,25.1565804 L95.4631715,25.0317989 C95.4622766,24.8052606 95.4602629,24.353359 95.4602629,24.2850559 C95.4602629,24.1971399 95.3563888,24.1875455 95.3270182,24.1875455 L95.5905706,24.1875455 Z M84.218028,8.67709231 C84.3000699,8.72428112 84.3811329,8.77303636 84.4608252,8.82394545 L85.1121678,9.24247692 L85.1121678,9.24247692 C85.4976084,9.48576364 85.8845175,9.7268965 86.2708392,9.96891049 L86.3584615,10.023442 L86.3584615,10.023442 C86.5263636,10.1263371 86.6435524,10.2699594 86.7066014,10.4569524 L86.8385734,10.8478755 L86.8385734,10.8478755 C87.1018322,11.6212042 87.365972,12.3942392 87.6276643,13.1679594 C87.6856224,13.3388965 87.7375105,13.5114 87.773049,13.689386 C87.8091748,13.8701133 87.7748112,14.0280294 87.6726014,14.1789944 C87.3926014,14.5920434 87.1175944,15.0082252 86.8369091,15.4207846 C86.7791469,15.5056657 86.7087552,15.5827147 86.6371888,15.6565329 C86.5685594,15.7271203 86.4791748,15.7610923 86.3796084,15.7527706 C86.3026573,15.746407 86.2251189,15.7378895 86.1503217,15.7199734 C85.7322797,15.6202112 85.3148252,15.5182951 84.8975664,15.4151063 C84.4886294,15.3138755 84.0800839,15.2121552 83.6722238,15.1066168 C83.5453427,15.0738196 83.4180699,15.0651063 83.2887413,15.0700014 C83.2152168,15.0727427 83.1576503,15.1170923 83.1383636,15.1889524 C83.1251469,15.238393 83.1137902,15.2897916 83.1122238,15.3406028 C83.108993,15.4436937 83.111049,15.5470783 83.1138881,15.6502671 C83.141007,16.6395678 83.1686154,17.6287706 83.1964196,18.6178755 C83.2178601,19.3834699 83.2378322,20.1491622 83.262993,20.9145608 C83.2680839,21.0688545 83.2920699,21.2224629 83.3100839,21.3760713 C83.3224196,21.4810224 83.3652028,21.5747147 83.4292308,21.6580294 C83.4607552,21.6987566 83.4941399,21.7385049 83.5290909,21.7762951 C83.8146713,22.0866448 84.1001538,22.3970923 84.3874965,22.7056797 C84.434,22.7555119 84.4876503,22.7995678 84.5415944,22.841372 C84.5911329,22.8796517 84.662014,22.8701552 84.7041119,22.8195399 C84.7367133,22.7804769 84.7692168,22.7381832 84.788014,22.6917776 C84.816993,22.6202112 84.835986,22.5446308 84.8560559,22.4699315 C85.149958,21.3827287 85.4430769,20.2950364 85.7372727,19.2078336 C85.7596923,19.1252042 85.7865175,19.0432601 85.8175524,18.963372 C85.8457483,18.8905329 85.9306294,18.8813301 85.9853566,18.9409524 C85.9971049,18.9535818 86.0096364,18.9656238 86.0203077,18.9790364 C86.0364615,18.9992042 86.0519301,19.0198615 86.0664196,19.0411063 C86.3353566,19.4410364 86.6048811,19.8402811 86.8721538,20.2410923 C86.939021,20.3411483 86.9974685,20.4460014 87.0324196,20.5632881 C87.069035,20.686449 87.0546434,20.8016797 86.9907133,20.9108406 C86.9602657,20.9627287 86.9258042,21.0122671 86.8915385,21.0618056 C86.3789231,21.8055678 85.8662098,22.549428 85.3529091,23.2929944 C85.2992587,23.3707287 85.2433566,23.4472881 85.1860839,23.5224769 C85.0795664,23.6630643 84.9336923,23.7305189 84.7604056,23.7241552 C84.451035,23.7131902 84.1411748,23.7008545 83.8326853,23.6749105 C83.6187692,23.6567986 83.4041678,23.6420154 83.1916224,23.6035399 C82.9780979,23.5650643 82.802951,23.4705888 82.6727413,23.2968126 C82.5745455,23.1662112 82.477035,23.0349245 82.3821678,22.9016797 C82.1224336,22.5372881 81.8661259,22.1706448 81.6052168,21.8072322 C81.4447552,21.5835259 81.2835105,21.3599175 81.1127692,21.1442392 C80.9555385,20.9460853 80.879958,20.7268825 80.8897483,20.4751762 C80.8997343,20.2171063 80.9077622,19.9592322 80.9143217,19.7011622 C80.9405594,18.6860154 80.9656224,17.6708685 80.9917622,16.6559175 C80.9960699,16.4838056 81.0026294,16.3118895 81.0082098,16.1398755 C81.0117343,16.1399734 81.0152587,16.1399734 81.0186853,16.1401692 C81.0222098,15.9767706 81.0245594,15.813372 81.0295524,15.6499734 C81.0592168,14.6866168 81.0897622,13.723358 81.1189371,12.7600993 C81.128042,12.4589524 81.1363636,12.1579035 81.1410629,11.8568545 C81.1434126,11.7012881 81.1634825,11.5482671 81.1872727,11.3950503 C81.2077343,11.2634699 81.2637343,11.1493161 81.353021,11.0516098 C81.3994266,11.0009944 81.4485734,10.9525329 81.4973287,10.9040713 C82.0523357,10.3515119 82.6067552,9.79846294 83.163035,9.24727413 C83.2914825,9.1201972 83.4247273,8.99801538 83.559049,8.87710629 C83.6292448,8.81395944 83.7038462,8.75492448 83.7813846,8.70098042 C83.9205035,8.60366573 84.0679441,8.59093846 84.218028,8.67709231 Z M115.601035,12.5842867 L114.950084,13.2225105 L118.474266,21.8756853 L119.096923,22.514007 L115.82758,22.514007 L116.478531,21.8756853 L115.700112,19.8188601 L116.138909,19.3363986 L111.609762,19.3363986 L110.619091,21.7907063 L111.312531,22.514007 L108.764923,22.514007 L109.444364,21.8756853 L110.505818,19.3363986 L109.798182,18.5136294 L110.845441,18.5136294 L113.053427,13.2225105 L112.38828,12.5842867 L115.601035,12.5842867 Z M110.235755,12.5841203 L110.447909,15.194386 L109.103909,13.4779664 L106.062385,13.4779664 L106.062385,16.9815888 L107.873182,16.9815888 L108.849364,16.1022322 L108.849364,18.7407916 L107.873182,17.8186517 L105.539,17.8186517 L106.062385,18.3718965 L106.062385,21.8048336 L106.769629,22.5140364 L103.501755,22.5140364 L104.209196,21.8048336 L104.209196,13.293421 L103.501755,12.5841203 L110.235755,12.5841203 Z M152.834309,12.5841888 L152.144491,13.2756713 L152.144491,18.5864685 C152.144491,20.2599091 153.068589,21.4214196 154.710309,21.4214196 C156.158575,21.4214196 157.193204,20.2873217 157.193204,18.9182587 L157.193204,18.9182587 L157.193204,13.3448881 L156.434463,12.5841888 L159.069204,12.5841888 L158.310463,13.3448881 L158.310463,18.8491399 C158.310463,20.7714476 156.806883,22.514007 154.282575,22.514007 C151.840994,22.514007 150.337414,21.0342168 150.337414,18.8628462 L150.337414,18.8628462 L150.337414,13.2756713 L149.647792,12.5841888 L152.834309,12.5841888 Z M145.287565,12.5841203 L144.580124,13.293421 L144.580124,21.0672392 L144.056446,21.6204839 L148.047034,21.6204839 L149.249761,20.0458266 L149.108292,22.5140364 L142.01881,22.5140364 L142.72625,21.8048336 L142.72625,13.293421 L142.01881,12.5841203 L145.287565,12.5841203 Z M163.985945,12.5841888 C165.953973,12.5841888 167.398127,13.6622867 167.398127,15.0950839 C167.398127,16.0881049 166.690295,16.8823846 165.599959,17.2796713 C167.030113,17.5916853 167.99298,18.5422168 167.99298,19.7478811 C167.99298,21.3366364 166.548729,22.514007 164.566407,22.514007 L164.566407,22.514007 L159.964715,22.514007 L160.672645,21.8048042 L160.672645,13.2934895 L159.964715,12.5841888 Z M121.816213,12.5842378 L127.023234,20.0457483 L127.023234,13.3645175 L126.24501,12.5842378 L128.947499,12.5842378 L128.169373,13.3645175 L128.169373,21.6770909 L128.820227,22.5141538 L126.556338,22.5141538 L121.363415,15.0666434 L121.363415,21.7338741 L122.141541,22.5141538 L119.43915,22.5141538 L120.217276,21.7338741 L120.217276,13.5204755 L119.481541,12.5842378 L121.816213,12.5842378 Z M65.0732434,12.8997664 C64.9778867,12.8918364 64.8850755,12.909165 64.7918727,12.9256126 C64.436586,12.9886615 64.0811035,13.0506336 63.7257189,13.1125077 C63.4294671,13.1639063 63.1328238,13.2133469 62.8369636,13.2666056 C62.7699007,13.2787455 62.7030336,13.2985217 62.639593,13.3234867 C62.535621,13.3644098 62.4753133,13.4466476 62.4548517,13.5547315 C62.4452493,13.6047594 62.4452493,13.6573329 62.4452493,13.7086336 C62.4451594,13.8463818 62.4459427,13.9838364 62.448586,14.1212909 C62.4670895,15.1701161 62.4861804,16.2189413 62.5052713,17.2676685 L62.5023343,17.2676685 C62.5186839,18.4368154 62.5350336,19.606158 62.5512853,20.775207 C62.5520685,20.8268014 62.5514811,20.8786895 62.5562783,20.9297944 C62.5812434,21.1949133 62.6740545,21.4269413 62.8672154,21.6193189 C63.0742783,21.8255986 63.2706699,22.0423538 63.4721524,22.2543119 C63.5194392,22.3039483 63.5653552,22.3561301 63.6171455,22.4007734 C63.7227818,22.4916266 63.8423203,22.5233469 63.975565,22.4645077 C64.0306839,22.440228 64.0851175,22.4148713 64.1386699,22.3875566 L65.1244462,21.8810112 L65.1244462,21.8810112 C65.1779007,21.8535986 65.2301804,21.8238364 65.2832434,21.7953469 C65.4112993,21.7269133 65.4920685,21.6188294 65.538572,21.484214 C65.5668657,21.4029552 65.5857608,21.319249 65.5873273,21.2320182 C65.5890895,21.1203119 65.5940825,21.0087035 65.5959427,20.8968993 C65.621593,19.4435427 65.5886,17.9910671 65.5284881,16.5390811 C65.5147818,16.204158 65.4953972,15.8693329 65.4731734,15.5347035 C65.4498727,15.1830392 65.4221664,14.8317664 65.3921105,14.4805916 C65.3577469,14.0780182 65.3183902,13.6760322 65.2817748,13.2737524 C65.2731594,13.1785916 65.2525021,13.086172 65.2133413,12.9998224 C65.187593,12.943235 65.1401105,12.9053469 65.0732434,12.8997664 Z M137.657976,12.4277804 C138.596662,12.4277804 139.440284,12.7270671 140.174843,13.1759483 L140.174843,13.1759483 L140.909501,12.4549972 L141.195277,15.5293189 L140.623822,14.8084657 C139.889263,13.8834867 138.909655,13.3800741 137.916536,13.3800741 C135.902885,13.3800741 134.487906,15.2436406 134.487906,17.4338084 C134.487906,19.6512909 135.916592,21.4877385 137.916536,21.4877385 C138.950382,21.4877385 139.902871,21.0932909 140.623822,20.1818224 L140.623822,20.1818224 L141.195277,19.4607734 L140.909501,22.4127175 L140.174843,21.6917664 C139.440284,22.1407455 138.596662,22.440093 137.657976,22.440093 C134.69213,22.4536406 132.596927,20.1818224 132.596927,17.4338084 C132.596927,14.5499063 134.678424,12.4277804 137.657976,12.4277804 Z M28.0802308,5.30822238 C28.0884545,5.3324042 28.091979,5.35864196 28.0938392,5.3839986 L28.1535594,6.15595664 L28.1535594,6.15595664 C28.1728462,6.40472587 28.1912517,6.65359301 28.2132797,6.90197063 C28.2208182,6.98753706 28.2374615,7.07232028 28.251951,7.15690769 C28.2595874,7.20037622 28.3121608,7.22563497 28.3508322,7.20419441 C28.4109441,7.17080979 28.4712517,7.13762098 28.5283287,7.09934126 C28.8285944,6.89834825 29.1275874,6.69559301 29.4273636,6.49411049 C29.4988322,6.44613846 29.5698112,6.39728531 29.6446084,6.35518741 C29.688958,6.33022238 29.738986,6.3125021 29.7885245,6.30143916 C29.850007,6.28773287 29.9116853,6.29908951 29.9523147,6.35215245 C30.0095874,6.42714545 30.0689161,6.50213846 30.1137552,6.58466993 C30.2205664,6.78086573 30.3263986,6.97813846 30.4202867,7.18089371 C30.7387622,7.86924336 30.9811678,8.58569091 31.194986,9.31232028 C31.3017972,9.67534126 31.3960769,10.0414951 31.4793916,10.4108797 C31.5042587,10.5212154 31.5115035,10.631649 31.5099371,10.7437469 C31.5083706,10.8618168 31.4611818,10.9611874 31.3833497,11.0458727 C31.3429161,11.0903203 31.2965105,11.129579 31.2508881,11.1687399 C30.793979,11.5611315 30.3366783,11.9531315 29.8791818,12.3449357 C29.8008601,12.4120965 29.7238112,12.4813133 29.6197413,12.5085301 C29.5773497,12.5194951 29.5364266,12.525565 29.4932517,12.5128378 C29.4353916,12.4958028 29.3891818,12.428642 29.4043566,12.3745021 C29.416007,12.3333832 29.4288322,12.2916769 29.4488042,12.2541804 C29.4772937,12.2013133 29.5101888,12.1505021 29.5455315,12.1019427 C29.6258112,11.9919986 29.6565524,11.8694252 29.6397133,11.7361804 C29.6192517,11.5742503 29.6033916,11.4106559 29.5692238,11.2513692 C29.4756294,10.8142364 29.3761608,10.3783762 29.2741469,9.9432014 C29.1603846,9.45760699 29.0413357,8.97328531 28.9238531,8.48876783 C28.9056434,8.41367692 28.8846923,8.33897762 28.8607063,8.26545315 C28.8397552,8.20103357 28.7563427,8.16138322 28.6921189,8.18536923 C28.6278951,8.20915944 28.562986,8.23363497 28.5030699,8.26653007 C28.2958112,8.38019441 28.3049161,8.36962098 28.3134336,8.58275385 C28.3351678,9.13296364 28.3596434,9.68307552 28.3831399,10.2332853 L28.3914615,10.3878727 L28.3914615,10.3878727 C28.4154476,11.0844462 28.4389441,11.7809217 28.4629301,12.4773972 C28.4881888,13.2084322 28.5139371,13.9393692 28.5394895,14.6702084 L28.5473217,14.6700126 L28.5474196,14.7474531 L28.5474196,14.7474531 C28.5713077,15.4352154 28.5943147,16.1233692 28.6195734,16.8111315 C28.6455175,17.5162224 28.6733217,18.2212154 28.7003427,18.9262084 L28.7105245,19.1840825 L28.7105245,19.1840825 L28.7521329,20.1900266 L28.7521329,20.1900266 C28.759965,20.3962084 28.768972,20.6028797 28.7685804,20.8092573 C28.7682867,21.0468657 28.8506224,21.2470755 29.0226364,21.4082224 C29.1606783,21.5374531 29.3033217,21.6622783 29.4452797,21.7871035 C29.5293776,21.8610196 29.6177832,21.929551 29.7010979,22.0042503 C29.7324266,22.0323483 29.7554336,22.0701385 29.7805944,22.1046 C29.7958671,22.1257469 29.7687483,22.1835091 29.7419231,22.1889916 C29.7084406,22.1954531 29.6750559,22.2044601 29.6410839,22.2065161 L28.7134615,22.2585021 L28.7134615,22.2585021 C28.3183287,22.2822923 27.9235874,22.3081385 27.5286503,22.3331035 C27.4942867,22.3354531 27.4601189,22.3398587 27.4256573,22.341621 C26.9273357,22.3655091 26.4287203,22.3899846 25.9302028,22.4115231 C25.836021,22.415635 25.7410559,22.4104462 25.6467762,22.4059427 C25.5793217,22.4028098 25.5473077,22.3286 25.589993,22.2736769 C25.6267063,22.2261944 25.6663566,22.1806699 25.7084545,22.1377888 C25.8471818,21.9968098 25.9880629,21.8576909 26.1271818,21.7169077 C26.1817133,21.6619846 26.2356573,21.6061804 26.2861748,21.547635 C26.3777133,21.4411175 26.435965,21.3189357 26.4587762,21.1787399 C26.4756154,21.0761385 26.4801189,20.973635 26.4781608,20.8701524 C26.4635734,20.1130755 26.4503566,19.3559986 26.4344965,18.5991175 C26.4167762,17.7559846 26.3968042,16.9128517 26.3776154,16.0699147 C26.3572517,15.1752853 26.3363986,14.2804601 26.3163287,13.3860266 C26.3024266,12.7580825 26.2928322,12.1298448 26.2761888,11.5019986 C26.2485804,10.452586 26.2168601,9.40336923 26.1865105,8.35395664 C26.1847483,8.29404056 26.1831818,8.23334126 26.1735874,8.17411049 C26.1545944,8.05564895 26.0731399,7.97331329 25.9536993,7.95020839 C25.8013636,7.92083776 25.6470699,7.9086979 25.4922867,7.89978881 C25.2775874,7.88735524 25.0632797,7.86836224 24.8490699,7.84956503 C24.8162727,7.84672587 24.7837692,7.83174685 24.7524406,7.81931329 C24.7132797,7.80394266 24.6995734,7.73873986 24.7310979,7.71113147 C24.8150979,7.6377049 24.8986084,7.5632014 24.9868182,7.49496364 C25.5860769,7.03218042 26.1865105,6.57086573 26.7864545,6.10896364 C27.0999371,5.86753706 27.4129301,5.62513147 27.7273916,5.38497762 C27.7955315,5.33299161 27.8674895,5.28541119 27.941014,5.24135524 C27.9985804,5.20708951 28.0564406,5.23802657 28.0802308,5.30822238 Z M164.283176,17.8186224 L162.527498,17.8186224 L162.527498,21.1380909 L162.003624,21.6912378 L164.283176,21.6912378 C165.416001,21.6912378 166.138029,20.8258811 166.138029,19.7478811 C166.138029,18.683979 165.416001,17.8186224 164.283176,17.8186224 L164.283176,17.8186224 Z M35.4420476,4.34162517 C35.5144951,4.36776503 35.4990266,4.43913566 35.5031385,4.49572308 C35.5087189,4.57286993 35.5073483,4.65050629 35.5074462,4.72794685 C35.5087189,5.10653427 35.5092084,5.48521958 35.5109706,5.86380699 C35.5113622,5.94105175 35.5151804,6.01849231 35.5203692,6.09563916 C35.5248727,6.16045035 35.5767608,6.18982098 35.626593,6.15545734 C35.7044252,6.1020028 35.7819636,6.04776503 35.8558797,5.98882797 C36.0645091,5.82259021 36.2709846,5.65370909 36.478635,5.48649231 C36.5857399,5.40014266 36.6922573,5.31271608 36.8022993,5.22979301 C36.8568308,5.18886993 36.9169427,5.15411469 36.977642,5.12259021 C37.0387329,5.09067413 37.1260615,5.11485594 37.1598378,5.17624056 C37.2091804,5.26631049 37.256565,5.35843636 37.2942573,5.45379301 C37.4556,5.86155524 37.6140056,6.27039441 37.7717259,6.67962517 C38.0156979,7.31334545 38.2586909,7.94765315 38.5008028,8.58225455 C38.537614,8.67859021 38.5687469,8.77707972 38.5999776,8.87527552 C38.6212224,8.94184895 38.6220056,9.01106573 38.6090825,9.0795972 C38.5944951,9.15684196 38.5668867,9.22909371 38.5088308,9.28519161 C38.4591944,9.33296783 38.4089706,9.38005874 38.3571804,9.42509371 C37.8763832,9.84264615 37.395586,10.2600028 36.9142014,10.6766741 C36.8622154,10.7216112 36.8080755,10.7643944 36.7523692,10.8046322 C36.7250545,10.8243105 36.6930406,10.8391916 36.6611245,10.850842 C36.5918098,10.8762965 36.5258238,10.8697371 36.4684531,10.8192196 C36.4197958,10.7766322 36.4020755,10.6955692 36.4261594,10.6288 C36.4349706,10.6046182 36.4429986,10.5790657 36.4570965,10.5581147 C36.7018517,10.1936252 36.7229986,9.78488392 36.6892224,9.36733147 C36.6594601,8.99794685 36.5750685,8.63717762 36.4887189,8.27748531 C36.4164671,7.97663217 36.3395161,7.67675804 36.229572,7.38667413 C36.1927608,7.28975105 36.1515441,7.19556923 36.0927049,7.10980699 C36.0351385,7.0261986 35.9389007,7.00162517 35.8419776,7.04303776 C35.7597399,7.07798881 35.6969846,7.13477203 35.6499916,7.20927552 C35.584593,7.31314965 35.547586,7.42779301 35.5369147,7.5488979 C35.5240895,7.69438042 35.5132224,7.84074406 35.5127329,7.98661818 C35.5096979,9.13109371 35.5089147,10.2753734 35.5081315,11.419751 C35.507642,12.1769259 35.5081315,12.9341007 35.5081315,13.6912755 L35.5119497,13.6912755 C35.5119497,15.5669818 35.5118517,17.4426881 35.5122434,19.3185902 C35.5122434,19.4389119 35.5162573,19.5593315 35.5188028,19.679751 C35.5228168,19.8656671 35.5796979,20.0338629 35.6848448,20.1872755 C35.8158378,20.3789678 35.9454601,20.5715413 36.0752783,20.7641147 C36.094565,20.7926042 36.1128727,20.8216811 36.1303972,20.8512476 C36.1639776,20.9080308 36.1260895,20.9712755 36.0554042,20.9764643 C36.0298517,20.9784224 36.0039077,20.981751 35.9783552,20.9799888 C35.8154462,20.9682406 35.6521455,20.9582545 35.4895301,20.9421986 C35.0428028,20.8987301 34.5967608,20.9013734 34.149642,20.9421007 C33.6864671,20.9842965 33.2283832,21.0549818 32.7749007,21.1579748 C32.7415161,21.1655133 32.7069566,21.1679608 32.6727888,21.1716811 C32.6127748,21.1779469 32.5680336,21.1606182 32.5611804,21.1332056 C32.551586,21.0946322 32.5710685,21.0659469 32.5925091,21.0401986 C32.7407329,20.8613315 32.8895441,20.6828559 33.0390406,20.5052615 C33.1797259,20.3383385 33.2819357,20.1506601 33.3412643,19.9408559 C33.3812084,19.7996811 33.398635,19.6542965 33.4010825,19.5075413 C33.4061734,19.2064923 33.4125371,18.9054434 33.4154741,18.6042965 C33.4389706,16.2209678 33.4605091,13.8377371 33.4852783,11.4544084 C33.4990825,10.1295972 33.5177818,8.80459021 33.5337399,7.47968112 C33.5352084,7.36787692 33.5335441,7.25607273 33.5331524,7.14426853 C33.5326629,7.01396084 33.471572,6.91341538 33.3744531,6.83342937 C33.3281455,6.79524755 33.2769427,6.76264615 33.2269147,6.72935944 C33.1698378,6.69107972 33.1099217,6.65681399 33.0539217,6.61706573 C32.9279217,6.5269958 32.9138238,6.40589091 33.018579,6.28625455 C33.0692923,6.2282965 33.1258797,6.17464615 33.1850126,6.12510769 C33.3562434,5.98119161 33.528649,5.83874406 33.7032084,5.69874406 C34.0591804,5.41384895 34.4177958,5.13218462 34.7734741,4.8467021 C34.9342294,4.71737343 35.0904811,4.58226853 35.2487888,4.44970909 L35.2777678,4.42408322 L35.2777678,4.42408322 L35.3073343,4.39919161 C35.3473762,4.36864615 35.3856559,4.32135944 35.4420476,4.34162517 Z M113.563007,14.4567622 L111.935287,18.5136294 L115.190727,18.5136294 L113.563007,14.4567622 Z M163.702715,13.406958 L162.527498,13.406958 L162.527498,16.9958531 L163.702715,16.9958531 C164.877931,16.9958531 165.628253,16.1872797 165.628253,15.2084545 C165.628253,14.2155315 164.877931,13.406958 163.702715,13.406958 L163.702715,13.406958 Z M83.4617343,10.1465049 C83.4090629,10.1920294 83.3708811,10.2517497 83.3552168,10.3199874 C83.3378881,10.3950783 83.3203636,10.4715399 83.3172308,10.5480014 C83.2939301,11.0894 83.2743497,11.6310923 83.2534965,12.1726867 C83.2562378,12.1728825 83.2587832,12.1728825 83.2615245,12.1729804 C83.248014,12.5167147 83.2342098,12.860449 83.2215804,13.2044769 C83.2154126,13.3678755 83.2113007,13.5312741 83.2077762,13.6946727 C83.2066993,13.7461692 83.2082657,13.7979594 83.2130629,13.8491622 C83.2199161,13.9226867 83.2582937,13.9809385 83.3219301,14.0146168 C83.3822378,14.0462392 83.4468531,14.0732601 83.5127413,14.0896098 C83.6126014,14.1141832 83.7151049,14.129358 83.8168252,14.1459035 L84.988028,14.3340713 L84.988028,14.3340713 C85.1834406,14.3649105 85.378951,14.3941832 85.574951,14.4199315 C85.6338881,14.4275678 85.694979,14.4260014 85.7542098,14.4202252 C85.8329231,14.4125888 85.8885315,14.3294699 85.8733566,14.2505608 C85.8685594,14.2254 85.8632727,14.1999455 85.8546573,14.1759594 C85.8226434,14.0868685 85.7918042,13.9974839 85.7556783,13.9102531 C85.479986,13.2425608 85.2034126,12.5755538 84.9269371,11.908449 C84.7261399,11.4240294 84.5262238,10.9390224 84.3225874,10.4558755 C84.2726573,10.337414 84.2115664,10.223358 84.1511608,10.1094979 C84.1123916,10.0362671 84.0443497,9.99485455 83.9634825,9.98839301 C83.7759021,9.97302238 83.6054545,10.0219734 83.4617343,10.1465049 Z M54.4101385,12.1316266 C54.3864462,12.1329972 54.3778308,12.1335846 54.3693133,12.1338783 C54.307635,12.1363259 54.2591734,12.2042699 54.2798308,12.2619343 C54.2912853,12.2939483 54.3025441,12.3273329 54.3213413,12.3550392 C54.5101944,12.6316126 54.6998308,12.9077944 54.8908378,13.1828014 C54.9150196,13.2176545 54.9465441,13.2480042 54.9776769,13.2772769 C55.0509077,13.3460042 55.1568378,13.3443399 55.2334951,13.274242 C55.2589497,13.2511371 55.2851874,13.228228 55.3062364,13.2014028 C55.4330196,13.0388853 55.5588238,12.8756825 55.6833552,12.7114028 C55.7038168,12.6844797 55.7182084,12.6525636 55.7319147,12.6214308 C55.7682364,12.538214 55.7322084,12.4395287 55.6507538,12.4037944 C55.6039566,12.3831371 55.5551035,12.3639483 55.5052713,12.3532769 C55.169565,12.2811231 54.8334671,12.2113189 54.4974671,12.1416126 C54.4639846,12.1344657 54.4293273,12.1337804 54.4101385,12.1316266 Z M64.3859706,10.4199063 C64.3617888,10.4285217 64.3360406,10.4355706 64.3148937,10.4492769 C64.2575231,10.4868713 64.2020126,10.5273049 64.1463063,10.5673469 C63.9018448,10.7422 63.6577748,10.9174448 63.413607,11.0925916 C63.2601944,11.2027315 63.1057049,11.311207 62.9541524,11.4239902 C62.8784741,11.4802839 62.8057329,11.5410811 62.7370056,11.6055986 C62.6454671,11.6914587 62.5965161,11.7989552 62.5974951,11.9265217 L62.5976909,12.0554587 L62.5976909,12.0554587 C62.5949497,12.0557524 62.5922084,12.056242 62.589565,12.0564378 C62.6051315,12.1754867 62.6204042,12.2944378 62.6369497,12.4130951 C62.640572,12.4385497 62.6479147,12.4635147 62.6557469,12.4878923 C62.6814951,12.569151 62.781551,12.6202559 62.8642783,12.5928434 C62.9710895,12.557207 63.0678168,12.5015007 63.1570056,12.4336545 C63.3691594,12.2724098 63.5724042,12.1006895 63.7560685,11.9071371 C63.9106559,11.7446196 64.0418448,11.5644797 64.1503203,11.3679902 C64.287579,11.119221 64.3959566,10.8581161 64.4871035,10.5893748 C64.4953273,10.565193 64.4982643,10.539249 64.5029636,10.5142839 C64.5143203,10.4529972 64.4461804,10.3980741 64.3859706,10.4199063 Z M53.0797469,2.0637146 C52.9690196,2.0620042 52.9299566,2.10498322 52.9263343,2.22217203 C52.9248657,2.27376643 52.9263343,2.32536084 52.9271175,2.37695524 L52.9460126,3.66720699 L52.9460126,3.66720699 C52.9617748,4.65611608 52.9782224,5.64512308 52.9943762,6.63432587 L52.9894811,6.63432587 C53.0109217,8.07074545 53.0321664,9.50696923 53.0539986,10.943193 C53.0547818,11.0035007 53.0574252,11.0636126 53.0617329,11.1237245 C53.0634951,11.1489832 53.071621,11.1739483 53.0773972,11.1990112 C53.084642,11.2308294 53.1202783,11.2598084 53.1528797,11.2560881 C53.2208238,11.248158 53.2894531,11.241207 53.3563203,11.2276965 C53.6177189,11.1741441 53.8811734,11.1338084 54.1460965,11.1055147 C54.573635,11.0597944 55.0028378,11.0300322 55.4332154,11.0269972 C55.4762923,11.0268014 55.5194671,11.0257245 55.5619566,11.0199483 C55.7282923,10.9977245 55.8248238,10.8947315 55.8329497,10.7284937 C55.8368657,10.651249 55.8353972,10.5737105 55.8327538,10.4962699 C55.8166,10.0321161 55.7982923,9.56796224 55.783607,9.10380839 C55.7588378,8.33008811 55.7361245,7.55636783 55.712628,6.78245175 C55.7109636,6.73105315 55.7081245,6.67936084 55.7062643,6.62786434 C55.6805161,5.92306713 55.6533972,5.21826993 55.6291175,4.51337483 C55.6063063,3.85155664 55.5861385,3.18954266 55.5645021,2.52762657 C55.5633273,2.48464755 55.5619566,2.44137483 55.557649,2.39878741 C55.5541245,2.36461958 55.5473692,2.33084336 55.5395371,2.29736084 C55.5222084,2.22236783 55.4717888,2.17527692 55.3995371,2.16548671 C55.3654671,2.16098322 55.3310056,2.15726294 55.2969357,2.15579441 L54.3947678,2.1135007 L54.3947678,2.1135007 C54.1283762,2.10165455 53.8620825,2.0902 53.595593,2.07972448 C53.4237748,2.07287133 53.2516629,2.06611608 53.0797469,2.0637146 Z" id="Fill-55" fill="#fcf5e7"></path>
    </g>
</svg>